<svg xmlns="http://www.w3.org/2000/svg" width="344.673" height="344.654" viewBox="0 0 344.673 344.654">
  <g id="Group_16444" data-name="Group 16444" transform="translate(14524.512 -10870.784)">
    <path id="Path_2410" data-name="Path 2410" d="M946.938-821.669A165.624,165.624,0,0,0,799.316-674.01a149.813,149.813,0,0,0,16.9-1.478,149.993,149.993,0,0,0,38.62-10.941,152.4,152.4,0,0,0,79.681-79.736s0,0,0-.007c.022-.047.042-.094.063-.14a150.4,150.4,0,0,0,10.878-38.477,148.706,148.706,0,0,0,1.48-16.881M792.33-667.544l.294-3.479A172.656,172.656,0,0,1,842.565-778.4a172.66,172.66,0,0,1,107.357-49.963l3.481-.294-.02,3.492a154.742,154.742,0,0,1-1.611,21.292,156.8,156.8,0,0,1-11.206,39.8c-.064.149-.131.3-.2.452a158.743,158.743,0,0,1-83,83.05,156.235,156.235,0,0,1-40.249,11.4,155.266,155.266,0,0,1-21.305,1.607Zm320.8-7.945a149.46,149.46,0,0,0,16.885,1.48,165.581,165.581,0,0,0-147.6-147.659,148.977,148.977,0,0,0,1.48,16.876,150.506,150.506,0,0,0,10.941,38.622l0,.007a152.463,152.463,0,0,0,79.676,79.754,149.991,149.991,0,0,0,36.483,10.6q1.065.167,2.134.318M1137-667.544l-3.492-.02a155.18,155.18,0,0,1-21.283-1.607c-.053-.009-.107-.016-.16-.022a156.326,156.326,0,0,1-38.6-10.725l-.171-.073c-.44-.185-.877-.374-1.317-.563a158.845,158.845,0,0,1-82.995-83.079,156.728,156.728,0,0,1-11.4-40.246,154.621,154.621,0,0,1-1.611-21.285l-.02-3.492,3.481.294A172.648,172.648,0,0,1,1086.786-778.4a172.6,172.6,0,0,1,49.923,107.377ZM799.316-638.65a165.624,165.624,0,0,0,147.622,147.66,148.541,148.541,0,0,0-1.48-16.876,150.417,150.417,0,0,0-10.941-38.622l0-.007a152.392,152.392,0,0,0-79.674-79.734,149.927,149.927,0,0,0-38.622-10.941,149.415,149.415,0,0,0-16.9-1.48M953.4-484l-3.481-.294A172.66,172.66,0,0,1,842.565-534.26a172.655,172.655,0,0,1-49.941-107.377l-.294-3.478,3.49.02a155.3,155.3,0,0,1,21.309,1.609,156.407,156.407,0,0,1,40.253,11.4,158.753,158.753,0,0,1,82.988,83.057c.022.047.042.091.06.136a.082.082,0,0,1,.009.02c.018.04.035.078.051.118a.518.518,0,0,0,.029.062c0,.016.013.031.018.047a156.768,156.768,0,0,1,11.174,39.439c.022.145.042.285.062.427a154.934,154.934,0,0,1,1.609,21.285Zm41.061-61.625a150.476,150.476,0,0,0-10.569,37.756,149.1,149.1,0,0,0-1.48,16.881,165.581,165.581,0,0,0,147.6-147.66,149.08,149.08,0,0,0-16.876,1.48h-.009l-.77.111a150,150,0,0,0-37.847,10.81A152.463,152.463,0,0,0,994.838-546.5a.012.012,0,0,1,0,.007c-.125.287-.247.574-.372.861M975.95-484l.02-3.492a154.8,154.8,0,0,1,1.611-21.292,157.362,157.362,0,0,1,5.284-23.662v0l.013-.04c0-.013.007-.027.011-.038s0,0,0-.009a156.923,156.923,0,0,1,5.8-15.817l0,0a.843.843,0,0,1,.04-.1c.022-.053.047-.109.069-.162.06-.138.118-.274.18-.414a158.813,158.813,0,0,1,82.99-83.07,156.368,156.368,0,0,1,40.258-11.384,155.28,155.28,0,0,1,21.278-1.607l3.492-.02-.294,3.478a172.6,172.6,0,0,1-49.923,107.377A172.648,172.648,0,0,1,979.43-484.3Z" transform="translate(-15316.842 11699.441)" fill="#497a6e"/>
  </g>
</svg>
