<svg xmlns="http://www.w3.org/2000/svg" width="96.136" height="40.83" viewBox="0 0 96.136 40.83">
  <g id="Group_16455" data-name="Group 16455" transform="translate(-1620.653 -1972.184)">
    <path id="Path_2311" data-name="Path 2311" d="M103.141-30.581a19.807,19.807,0,0,1-3.293.346,27.483,27.483,0,0,1-8.072-1.639l-4.614-1.565a30.791,30.791,0,0,0-8.074-1.508,30.851,30.851,0,0,0-8.059,1.508l-4.617,1.565a27.467,27.467,0,0,1-8.07,1.639,27.5,27.5,0,0,1-8.074-1.639l-4.615-1.565a30.879,30.879,0,0,0-8.063-1.508,30.819,30.819,0,0,0-8.07,1.508L24.9-31.875a27.5,27.5,0,0,1-8.072,1.639,19.794,19.794,0,0,1-3.293-.346l.191.322a10.133,10.133,0,0,0,1.276,1.749,10.913,10.913,0,0,0,1.783.136A29.445,29.445,0,0,0,24.9-29.927l4.614-1.558a27.262,27.262,0,0,1,8.07-1.642,26.157,26.157,0,0,1,6.915,1.27l5.763,1.93a29.606,29.606,0,0,0,8.076,1.552,29.577,29.577,0,0,0,8.069-1.552l5.765-1.93a26.176,26.176,0,0,1,6.917-1.27,27.333,27.333,0,0,1,8.069,1.642l4.614,1.558a29.419,29.419,0,0,0,8.112,1.552,11.092,11.092,0,0,0,1.791-.136,10.621,10.621,0,0,0,1.269-1.749Z" transform="translate(1610.956 2028.205)" fill="#9e9e9e"/>
    <path id="Path_2312" data-name="Path 2312" d="M94.459-25.822,87.74-27.886c-3.022-.928-4.189-1.254-5.8-1.608a23.076,23.076,0,0,0-4.649-.6,31.367,31.367,0,0,0-8.062,1.5L64.613-27.02a27.113,27.113,0,0,1-8.1,1.642,27.016,27.016,0,0,1-8.095-1.642l-4.615-1.565a31.429,31.429,0,0,0-8.072-1.5,23.214,23.214,0,0,0-4.645.6c-1.592.353-2.855.7-5.8,1.608l-6.71,2.064a11.566,11.566,0,0,0,1.71,1.348l3.732-1.137,3.082-.909,1.238-.365a26.612,26.612,0,0,1,7.4-1.384A26.535,26.535,0,0,1,42.653-27l5.769,1.936a29.542,29.542,0,0,0,8.1,1.544,29.608,29.608,0,0,0,8.095-1.544L70.377-27a26.581,26.581,0,0,1,6.917-1.269,26.438,26.438,0,0,1,7.394,1.384l1.239.365,3.083.909,3.736,1.137A12.535,12.535,0,0,0,94.459-25.822Z" transform="translate(1612.756 2029.939)" fill="#9e9e9e"/>
    <path id="Path_2313" data-name="Path 2313" d="M84.949-23.185l-.422-.153-1.153-.384A29.438,29.438,0,0,0,75.3-25.235a28.518,28.518,0,0,0-6.913,1.174l-1.148.339c-.582.191-.972.319-1.16.384l-1.153.4-1.148.391-1.155.392a26.947,26.947,0,0,1-8.07,1.641,25.425,25.425,0,0,1-6.921-1.276l-1.153-.365-1.153-.392-1.148-.391-1.153-.4-1.16-.384A29.426,29.426,0,0,0,33.8-25.235a28.565,28.565,0,0,0-6.923,1.174l-1.147.339c-.817.263-.987.322-1.577.537l2.32,1.205.52-.159a24.38,24.38,0,0,1,6.814-1.272,23.649,23.649,0,0,1,5.755.936l1.153.335,1.148.372,1.16.384,1.153.4,1.148.391,1.153.384a28.446,28.446,0,0,0,8.076,1.551,27.048,27.048,0,0,0,6.917-1.205l1.152-.346,1.155-.384,1.148-.391,1.153-.4,1.16-.384,1.148-.372a24.827,24.827,0,0,1,6.917-1.27,24.363,24.363,0,0,1,6.807,1.27l.518.159Z" transform="translate(1614.745 2031.673)" fill="#9e9e9e"/>
    <path id="Path_2314" data-name="Path 2314" d="M23.852-41.476v5.052A8.862,8.862,0,0,1,20.4-35.7c-2.96,0-5.041-2.287-5.041-5.539a5.739,5.739,0,0,1,6.055-5.946,13.61,13.61,0,0,1,6.367,1.791v-3.359a15.861,15.861,0,0,0-6.833-1.607c-6.249,0-10.239,3.534-10.239,9.068,0,5.265,3.872,8.766,9.694,8.766a16.783,16.783,0,0,0,7.917-2.145v-6.807Z" transform="translate(1609.945 2022.703)" fill="#9e9e9e"/>
    <path id="Path_2315" data-name="Path 2315" d="M26.416-50v16.851h4.4V-46.815h1.9c2.485,0,3.6.792,3.6,2.559,0,1.806-1.247,2.838-3.435,2.838l-.966-.026h-.494l6.109,8.3h5.621l-5.6-6.774a5.015,5.015,0,0,0,3.19-4.8c0-3.57-2.314-5.281-7.138-5.281Z" transform="translate(1615.553 2022.833)" fill="#9e9e9e"/>
    <path id="Path_2316" data-name="Path 2316" d="M56.57-50v16.851h4.4v-7.2h7.769v7.2h4.4V-50h-4.4v6.23H60.967V-50Z" transform="translate(1626.319 2022.833)" fill="#9e9e9e"/>
    <path id="Path_2317" data-name="Path 2317" d="M72.233-50v16.851H84.879v-3.3H76.623v-4h6.071v-3.174H76.623v-3.07h7.294V-50Z" transform="translate(1631.911 2022.833)" fill="#9e9e9e"/>
    <path id="Path_2318" data-name="Path 2318" d="M43.62-41.395a5.564,5.564,0,0,1,5.729-5.9,5.566,5.566,0,0,1,5.731,5.906,5.571,5.571,0,0,1-5.731,5.9A5.571,5.571,0,0,1,43.62-41.395Zm-4.636,0c0,5.237,4.387,9.077,10.365,9.077s10.366-3.842,10.366-9.077-4.378-9.082-10.366-9.082S38.984-46.641,38.984-41.395Z" transform="translate(1620.04 2022.661)" fill="#9e9e9e" fill-rule="evenodd"/>
  </g>
</svg>
