<svg xmlns="http://www.w3.org/2000/svg" width="70.654" height="61.039" viewBox="0 0 70.654 61.039">
  <g id="right-quotes-symbol" opacity="0.31">
    <g id="Group_350" data-name="Group 350" transform="translate(0 0)">
      <path id="Path_2411" data-name="Path 2411" d="M266.077,51.412c0-.008,0-.015,0-.023a16.864,16.864,0,1,1,11.372,15.9C281.232,89,298.16,103,282.468,91.474,265.068,78.7,266.057,51.9,266.077,51.412Z" transform="translate(-266.061 -34.57)" fill="#497a6e"/>
      <path id="Path_2412" data-name="Path 2412" d="M16.834,68.208a16.756,16.756,0,0,1-5.447-.919C15.172,89,32.1,103,16.407,91.474-.993,78.7,0,51.9.016,51.412c0-.008,0-.015,0-.023A16.819,16.819,0,1,1,16.834,68.208Z" transform="translate(37.001 -34.57)" fill="#497a6e"/>
    </g>
  </g>
</svg>
