<svg xmlns="http://www.w3.org/2000/svg" width="195.659" height="195.657" viewBox="0 0 195.659 195.657">
  <path id="not-allowed" d="M142.819,132.011a26.767,26.767,0,0,0,14.53-21.024l7.924-72.8c1.479-11.086,8.224-22.9,22.742-22.9a7.643,7.643,0,0,0,0-15.286,35.764,35.764,0,0,0-26.209,10.758c-6.311,6.458-10.356,15.282-11.7,25.519-.007.056-.014.112-.02.167l-.567,5.209H52.463L13.048,2.24A7.643,7.643,0,0,0,2.24,13.049L182.611,193.42a7.643,7.643,0,1,0,10.808-10.809Zm5.037-75.07-5.7,52.392a11.51,11.51,0,0,1-11.459,10.279c-.088,0-.173.01-.26.013L67.749,56.941ZM12.564,107.748.162,50.859a7.643,7.643,0,1,1,14.964-3.121L27.471,104.37a19.586,19.586,0,0,0,7.824,11.87,18.294,18.294,0,0,0,10.437,3.372H85.6a7.643,7.643,0,1,1,0,15.286H45.732a33.5,33.5,0,0,1-19.15-6.1,34.83,34.83,0,0,1-14.018-21.051Zm122.546,61.366a7.641,7.641,0,0,0-9.2,5.681,7.262,7.262,0,1,1-7.067-8.943,7.643,7.643,0,0,0,0-15.286H43.183a22.565,22.565,0,1,0,21.34,15.286H97.5a22.549,22.549,0,1,0,43.29,12.457,7.643,7.643,0,0,0-5.681-9.2Zm-84.665,4a7.261,7.261,0,1,1-7.261-7.261A7.269,7.269,0,0,1,50.444,173.112Z" transform="translate(0 -0.002)" fill="#b7b7b7"/>
</svg>
