<svg id="Download" xmlns="http://www.w3.org/2000/svg" width="17" height="15.583" viewBox="0 0 17 15.583">
  <path id="Path_2477" data-name="Path 2477" d="M21,18.458V15.625a.708.708,0,1,0-1.417,0v2.833a.708.708,0,0,1-.708.708H6.125a.708.708,0,0,1-.708-.708V15.625a.708.708,0,0,0-1.417,0v2.833a2.125,2.125,0,0,0,2.125,2.125h12.75A2.125,2.125,0,0,0,21,18.458Zm-4.519-3.7-3.542,2.833a.708.708,0,0,1-.878,0L8.519,14.761A.708.708,0,0,1,9.4,13.656l2.394,1.913V5.708a.708.708,0,1,1,1.417,0v9.86L15.6,13.656a.708.708,0,1,1,.878,1.105Z" transform="translate(-4 -5)"/>
</svg>
