<?xml version="1.0" standalone="no"?>
<!DOCTYPE svg PUBLIC "-//W3C//DTD SVG 1.1//EN" "http://www.w3.org/Graphics/SVG/1.1/DTD/svg11.dtd" >
<svg xmlns="http://www.w3.org/2000/svg" xmlns:xlink="http://www.w3.org/1999/xlink" version="1.1">
<metadata>
Created by FontForge 20170731 at Tue Jun  7 11:10:46 2022
 By Aleksey,,,
Copyright (c) 2021 by Letterhend Studio. All rights reserved.
</metadata>
<defs>
<font id="GlorifyDEMO" horiz-adv-x="1146" >
  <font-face 
    font-family="Glorify DEMO"
    font-weight="400"
    font-stretch="normal"
    units-per-em="2048"
    panose-1="0 0 0 0 0 0 0 0 0 0"
    ascent="1536"
    descent="-512"
    x-height="1024"
    cap-height="1434"
    bbox="-59 -651 6130 1698"
    underline-thickness="102"
    underline-position="-358"
    unicode-range="U+000D-E000"
  />
<missing-glyph horiz-adv-x="614" 
 />
    <glyph glyph-name=".notdef" horiz-adv-x="614" 
 />
    <glyph glyph-name="uni0000" horiz-adv-x="0" 
 />
    <glyph glyph-name="uni0000" horiz-adv-x="0" 
 />
    <glyph glyph-name="uni000D" unicode="&#xd;" horiz-adv-x="512" 
 />
    <glyph glyph-name="space" unicode=" " horiz-adv-x="614" 
 />
    <glyph glyph-name="exclam" unicode="!" horiz-adv-x="516" 
d="M137 1434h248l-102 -1084h-45zM133 96q0 55 34.5 90t88.5 35q57 0 91 -34.5t34 -90.5t-34 -89.5t-91 -33.5q-54 0 -88.5 34t-34.5 89z" />
    <glyph glyph-name="quotedbl" unicode="&#x22;" horiz-adv-x="673" 
d="M123 1434h180l-168 -490h-45zM432 1434h178l-166 -490h-47z" />
    <glyph glyph-name="numbersign" unicode="#" horiz-adv-x="1347" 
d="M78 0l217 475h-260l20 45h260l193 420h-377l21 45h378l205 449h49l-204 -449h407l205 449h49l-205 -449h230l-21 -45h-231l-193 -420h346l-18 -45h-348l-217 -475h-49l217 475h-408l-217 -475h-49zM365 520h407l193 420h-408z" />
    <glyph glyph-name="dollar" unicode="$" horiz-adv-x="1193" 
d="M575 -186v176q-172 14 -300 81.5t-193 192.5q-24 40 -19.5 78t27.5 68.5t67.5 49t100.5 19.5l23 -2q19 -174 99 -279t195 -145v541q-50 21 -77 33t-73 34t-72.5 37.5t-64.5 40t-60 45.5t-47 50t-38.5 58t-22.5 65t-9 75q0 161 116 265.5t348 113.5v164h46v-162
q191 -2 315 -71t160 -207q34 -88 -33 -148t-184 -45l-11 2q8 98 -8.5 176t-53 127t-83 77.5t-102.5 39.5v-578q26 -12 76.5 -33.5t78.5 -34t74 -34.5t73.5 -37t65 -38.5t60 -43.5t48 -46.5t39 -52.5t22.5 -58t9 -66q0 -162 -135 -258t-368 -96h-43v-174h-46zM621 575v-536
q39 -10 94 -10q120 0 205.5 57t85.5 143q0 42 -13.5 79.5t-42.5 69t-60 57t-81 52t-88.5 44.5t-99.5 44zM575 807v561q-122 5 -220.5 -65t-98.5 -173q0 -56 24 -103.5t71.5 -87t99 -69t124.5 -63.5z" />
    <glyph glyph-name="percent" unicode="%" horiz-adv-x="1738" 
d="M31 1063q0 185 98.5 288t263.5 103q166 0 265.5 -99.5t99.5 -291.5q0 -181 -101 -285t-264 -104q-164 0 -263 103.5t-99 285.5zM229 -20l1203 1454h63l-1202 -1454h-64zM203 1059q0 -164 48 -253t142 -89q93 0 142 89.5t49 252.5q0 164 -49.5 257t-141.5 93
q-93 0 -141.5 -92.5t-48.5 -257.5zM981 369q0 185 98.5 288t263.5 103q166 0 265.5 -99.5t99.5 -291.5q0 -181 -101 -285t-264 -104q-164 0 -263 103.5t-99 285.5zM1155 365q0 -164 47 -253t141 -89q93 0 141 89.5t48 252.5q0 164 -48.5 257t-140.5 93q-93 0 -140.5 -92.5
t-47.5 -257.5z" />
    <glyph glyph-name="ampersand" unicode="&#x26;" horiz-adv-x="1392" 
d="M1130 1161q25 -69 -19 -121.5t-130 -52.5h-33q0 195 -92.5 308.5t-214.5 113.5q-111 0 -188.5 -96t-77.5 -271q0 -115 78 -196.5t206 -81.5h674v-41h-172v-743h-198v352q-27 -67 -63 -125.5t-84.5 -111.5t-113 -84t-135.5 -31t-135.5 15.5t-122 48.5t-99.5 81t-66.5 117
t-24.5 153q0 87 37 156.5t93.5 108.5t115 59t110.5 20v6q-28 0 -63.5 9t-77.5 31.5t-76 55.5t-57 87.5t-23 120.5q0 187 128.5 296t381.5 109q161 0 278 -78t164 -215zM963 725h-332q-105 0 -179.5 -62t-94.5 -150t-6.5 -176t85.5 -150t182 -62q50 0 108.5 26.5t112 73.5
t89 125t35.5 170v205z" />
    <glyph glyph-name="quotesingle" unicode="'" horiz-adv-x="364" 
d="M125 1434h178l-166 -490h-47z" />
    <glyph glyph-name="parenleft" unicode="(" horiz-adv-x="716" 
d="M127 596q0 117 20.5 228t49.5 195.5t77.5 169.5t86.5 139t95 116t85 88.5t74 67.5q14 12 20 18l27 -31q-111 -115 -188 -277.5t-112 -340.5t-34 -372t38 -372.5t113 -342t183 -281.5l-27 -31q-123 117 -187 193q-321 380 -321 833z" />
    <glyph glyph-name="parenright" unicode=")" horiz-adv-x="716" 
d="M590 596q0 -153 -40 -301t-87 -246t-129 -206t-121.5 -150t-108.5 -109l-18 -18l-33 35q107 118 183 281.5t113 342t38 372.5t-34 372t-112 340.5t-188 277.5l33 31q111 -101 160 -153q343 -372 344 -869z" />
    <glyph glyph-name="asterisk" unicode="*" horiz-adv-x="997" 
d="M498 1427h2q43 0 62.5 -25.5t10.5 -66.5l-63 -268l258 152q22 14 45 14q48 0 64 -55q13 -41 -4.5 -68.5t-59.5 -32.5l-295 -35l213 -198q31 -29 29 -62t-37 -59q-24 -18 -49 -18q-45 0 -64 51l-112 274l-113 -278q-19 -50 -59 -50q-24 0 -52 21q-34 26 -35.5 60t29.5 63
l211 196l-291 33q-42 3 -61 31t-8 70q15 59 63 59q25 0 45 -14l260 -154l-61 268q-10 41 9.5 66.5t62.5 25.5z" />
    <glyph glyph-name="plus" unicode="+" horiz-adv-x="882" 
d="M410 227v334h-328v45h328v334h45v-334h346v-45h-346v-334h-45z" />
    <glyph glyph-name="comma" unicode="," horiz-adv-x="415" 
d="M82 94q0 55 33.5 89t87.5 34q55 0 89 -33.5t34 -87.5q0 -150 -287 -313l-23 35q7 4 35 21.5t36 23t28 21t29 26.5t20.5 28.5t19.5 36.5q-46 6 -74 38t-28 81z" />
    <glyph glyph-name="hyphen" unicode="-" horiz-adv-x="823" 
d="M82 602h659v-45h-659v45z" />
    <glyph glyph-name="period" unicode="." horiz-adv-x="409" 
d="M82 96q0 54 34 88.5t89 34.5q54 0 88.5 -34.5t34.5 -88.5q0 -55 -34.5 -89t-88.5 -34q-55 0 -89 33.5t-34 89.5z" />
    <glyph glyph-name="slash" unicode="/" horiz-adv-x="813" 
d="M31 0l700 1434h51l-700 -1434h-51z" />
    <glyph glyph-name="zero" unicode="0" horiz-adv-x="1286" 
d="M82 717q0 353 147.5 545t411.5 192q269 0 416 -186.5t147 -550.5q0 -351 -149 -544t-414 -193q-264 0 -411.5 192.5t-147.5 544.5zM299 717q0 -690 344 -690q168 0 257 172.5t89 517.5q0 347 -89 519.5t-257 172.5q-344 0 -344 -692z" />
    <glyph glyph-name="one" unicode="1" horiz-adv-x="636" 
d="M299 0v1354h-6q-36 -43 -100.5 -78.5t-151.5 -38.5v45q159 2 266 152h205v-1434h-213z" />
    <glyph glyph-name="two" unicode="2" horiz-adv-x="1011" 
d="M137 1229q39 104 131 164.5t242 60.5q93 0 168 -25t122.5 -65.5t79.5 -93.5t45 -105.5t13 -105.5q0 -99 -41 -188t-106 -158t-143.5 -133t-157.5 -125t-144 -121.5t-106 -135t-41 -153.5h196q113 0 238.5 42t216.5 110l86 67v-264h-864q0 113 24 210.5t65 169t94 134
t111.5 112t117 95t111.5 90.5t94 91.5t65 105t24 125.5q0 76 -24 132.5t-63 87t-81 44.5t-86 14q-75 0 -136 -50t-79.5 -136t39.5 -201h-20q-70 -5 -123 22.5t-70.5 75t2.5 107.5z" />
    <glyph glyph-name="three" unicode="3" horiz-adv-x="1128" 
d="M174 1270q96 184 395 184q124 0 220.5 -46t147.5 -116.5t66.5 -157t-9 -166t-93 -145t-172.5 -92.5q146 -35 241 -124t95 -224q0 -194 -139.5 -298.5t-372.5 -104.5q-349 0 -440 200q-38 85 17 151t163 66h24q-39 -116 -9 -199.5t101 -130.5t158 -47q56 0 107 21.5
t92.5 63.5t66.5 113t25 163q0 144 -94.5 234t-255.5 90h-129l2 45h127q167 0 247 133q66 109 48 253q-17 138 -99 215q-61 58 -143 58q-74 0 -133 -44.5t-79 -124.5t30 -191h-39q-107 3 -158.5 71t-7.5 150z" />
    <glyph glyph-name="four" unicode="4" horiz-adv-x="1064" 
d="M653 383h-620v14l663 1037h166v-924h170v-127h-170v-383h-209v383zM653 1286l-501 -778l501 2v776z" />
    <glyph glyph-name="five" unicode="5" horiz-adv-x="1150" 
d="M287 444h24q-7 -105 14 -187.5t61 -132t91.5 -74.5t110.5 -25q125 0 220 101t95 269q0 200 -118.5 309t-305.5 109q-171 0 -348 -88l115 709h741v-254l-29 14q-95 45 -217.5 72.5t-228.5 27.5h-238l-63 -438q185 111 381 111q100 0 186.5 -31t154 -90.5t106 -154.5
t38.5 -214q0 -82 -18.5 -154t-60 -135.5t-103 -109t-152 -72t-202.5 -26.5q-158 0 -264 74t-156 190q-38 81 13 142t153 58z" />
    <glyph glyph-name="six" unicode="6" 
d="M995 1255q38 -89 -21 -160.5t-173 -74.5h-17q32 54 43 121t-1 127.5t-59.5 101.5t-123.5 41q-55 0 -102 -20t-80 -51.5t-60 -81.5t-44 -98t-29.5 -113t-18.5 -115t-9.5 -116t-4 -103.5t-0.5 -89.5q49 131 142 207.5t216 76.5q134 0 229.5 -59t141 -156.5t45.5 -222.5
q0 -123 -41 -219.5t-109.5 -154t-151.5 -86.5t-175 -29q-111 0 -203 42.5t-161 127t-107.5 220t-38.5 310.5q0 392 146.5 583t410.5 191q273 0 356 -199zM303 473v-2q35 -442 289 -442q55 0 103.5 26.5t82 71.5t58.5 103t33 122.5t5.5 129t-24 122.5t-54.5 103t-88 71.5
t-124 26.5q-72 0 -141 -55.5t-107 -133t-33 -143.5z" />
    <glyph glyph-name="seven" unicode="7" horiz-adv-x="862" 
d="M145 1198l-114 -55v291h798v-136l-440 -1298h-276l669 1305l-153 4q-116 3 -249 -27t-235 -84z" />
    <glyph glyph-name="eight" unicode="8" horiz-adv-x="1198" 
d="M600 -20q-80 0 -151.5 12t-139.5 42.5t-117 76.5t-78.5 119t-29.5 165q0 74 23 135.5t58.5 100.5t81 65.5t87.5 37.5t80 11v7q-25 0 -59 10.5t-73.5 36t-72 61.5t-54.5 93t-22 124q0 102 38 177.5t105 117.5t147.5 62t176.5 20q95 0 175.5 -20t147 -62t104.5 -117.5
t38 -177.5q0 -67 -22 -124t-54.5 -93t-72 -61.5t-73.5 -36t-59 -10.5v-7q38 0 80 -11t87.5 -37.5t81 -65.5t58.5 -100.5t23 -135.5q0 -92 -29.5 -165t-78.5 -119t-116.5 -76.5t-138.5 -42.5t-151 -12zM598 1399q-62 0 -114 -27.5t-85.5 -72t-52.5 -102t-21 -117t14.5 -117
t48.5 -102t86.5 -72t123.5 -27.5q70 0 125 27.5t87.5 72t49.5 102t15 117t-21.5 117t-53 102t-86.5 72t-116 27.5zM598 717q-78 0 -140 -29.5t-100 -78.5t-58 -111t-19.5 -127t21.5 -127t59.5 -111t100 -78.5t136.5 -29.5q76 0 138 29.5t100.5 78.5t60 111t22 127t-19.5 127
t-58.5 111t-101.5 78.5t-141 29.5z" />
    <glyph glyph-name="nine" unicode="9" 
d="M152 178q-40 88 18.5 160.5t173.5 73.5l23 2q-32 -55 -43 -122t1 -127t59 -101t124 -41q55 0 102 20t80 51.5t60 81.5t44 98t29.5 113t18.5 115t9.5 116t4 103.5t0.5 89.5q-49 -131 -142 -208t-216 -77q-134 0 -229.5 59t-141 157t-45.5 223q0 123 41.5 219.5t110.5 154
t152 86.5t173 29q112 0 204 -42.5t161 -127t107 -220t38 -310.5q0 -392 -146.5 -583t-410.5 -191q-277 0 -360 198zM848 961l2 2q-39 440 -291 440q-70 0 -129 -42.5t-92.5 -111t-52 -151t-7.5 -165t41.5 -151t95 -111t152.5 -42.5q55 0 109.5 33.5t93 82.5t60.5 108t18 108
z" />
    <glyph glyph-name="colon" unicode=":" horiz-adv-x="417" 
d="M82 831q0 56 34 90.5t89 34.5t89 -34.5t34 -90.5q0 -54 -34 -88t-89 -34t-89 34t-34 88zM82 150q0 56 34 90t89 34t89 -34t34 -90q0 -54 -34 -87.5t-89 -33.5t-89 33.5t-34 87.5z" />
    <glyph glyph-name="semicolon" unicode=";" horiz-adv-x="423" 
d="M82 698q0 56 34 90.5t89 34.5t89 -34.5t34 -90.5q0 -54 -34 -88.5t-89 -34.5t-89 34.5t-34 88.5zM82 96q0 56 34 89.5t89 33.5t89 -33.5t34 -89.5q0 -152 -287 -313l-23 35q9 6 34 22t35 22.5t29 21t29 26t21.5 29t19.5 36.5q-47 5 -75.5 37.5t-28.5 83.5z" />
    <glyph glyph-name="less" unicode="&#x3c;" horiz-adv-x="589" 
d="M88 545l440 424v-68l-407 -379l407 -334v-67l-440 379v45z" />
    <glyph glyph-name="equal" unicode="=" horiz-adv-x="872" 
d="M82 649h709v-45h-709v45zM82 391h709v-45h-709v45z" />
    <glyph glyph-name="greater" unicode="&#x3e;" horiz-adv-x="589" 
d="M528 545v-45l-440 -379v67l408 334l-408 379v68z" />
    <glyph glyph-name="question" unicode="?" horiz-adv-x="925" 
d="M82 1262q38 87 135 142.5t229 55.5q88 0 165 -32.5t126 -84.5t77 -113.5t28 -121.5q0 -74 -25.5 -136t-66.5 -107.5t-90.5 -88t-99.5 -86.5t-91 -93t-66.5 -118.5t-25.5 -152.5l-49 2q0 116 18 213t47 161.5t63.5 118.5t69.5 95.5t64 80t47 84t18 95.5q0 63 -20 112
t-52 76t-66 41t-68 14q-64 0 -110.5 -41.5t-65.5 -101.5t-14.5 -127.5t34.5 -118.5h-57q-61 0 -106.5 28t-62 79.5t14.5 124.5zM233 96q0 56 33.5 89.5t89.5 33.5t89.5 -33.5t33.5 -89.5t-33.5 -89.5t-89.5 -33.5t-89.5 33.5t-33.5 89.5z" />
    <glyph glyph-name="at" unicode="@" horiz-adv-x="1869" 
d="M518 346q0 100 83.5 162.5t260.5 62.5h316q-1 59 -6.5 105.5t-21.5 95.5t-43 81t-73.5 52.5t-109.5 20.5q-85 0 -143.5 -74.5t-37.5 -169.5h-24q-46 0 -82 23t-44.5 61t25.5 86q85 113 308 113q98 0 169 -18.5t125.5 -61t81.5 -117t27 -182.5v-213q0 -41 4.5 -84t15 -89
t32 -75t51.5 -29q129 0 211 127q82 130 78 320q-6 222 -131 397q-162 229 -471 281q-85 14 -177 14q-346 0 -560 -210q-169 -166 -211 -415q-42 -240 49 -456q92 -220 288 -327q150 -83 342 -83q109 0 243 46t195 104l33 -46q-178 -145 -504 -145q-286 0 -477 195
q-161 163 -208 412q-49 253 41 484q96 247 318 373q192 109 451 109q397 0 617 -233q159 -167 190 -411q26 -207 -49 -374q-67 -150 -185 -195q-42 -16 -88 -16q-129 0 -189 68t-60 172v24q-63 -112 -154 -183t-193 -71q-141 0 -227 74t-86 215zM1178 371v157h-299
q-82 0 -135.5 -37t-64 -89.5t3.5 -105t66 -89.5t123 -37q88 0 179 60.5t127 140.5z" />
    <glyph glyph-name="A" unicode="A" horiz-adv-x="1431" 
d="M348 39l21 -39h-357l631 1434h201l575 -1434h-258l-174 465h-704q-21 -106 -4 -220.5t69 -205.5zM293 510h678l-303 815l-15 31l-331 -768q-15 -32 -29 -78z" />
    <glyph glyph-name="B" unicode="B" horiz-adv-x="1230" 
d="M141 0v1434h506q134 0 227.5 -28.5t143 -81.5t70 -115.5t20.5 -143.5q0 -142 -90.5 -236t-229.5 -94v-10q115 0 198 -28.5t128 -79t65.5 -109.5t20.5 -129q0 -59 -14.5 -111t-50.5 -102.5t-91 -86t-142.5 -57.5t-199.5 -22h-561zM356 741h318q93 0 156 101.5t63 230.5
q0 126 -61.5 221t-157.5 95h-316zM358 45h318q68 0 124.5 29t92.5 76.5t56 106t20 118.5q0 130 -78.5 225.5t-196.5 95.5h-336v-651z" />
    <glyph glyph-name="C" unicode="C" horiz-adv-x="1589" 
d="M1276 918l-25 -11q-66 237 -212.5 363.5t-313.5 126.5q-103 0 -193 -49.5t-153.5 -145.5t-83 -237t17.5 -324q30 -142 93.5 -249.5t147 -170.5t177 -94t195.5 -31q136 0 262 50t216.5 143t119.5 209l24 -2q-64 -250 -246 -383t-458 -133q-159 0 -296 49.5t-239 141.5
t-160.5 232.5t-58.5 313.5t58.5 314t160.5 232.5t239 141t296 49.5q59 0 129.5 -12t148 -39.5t140.5 -66.5t104 -99t41 -131q0 -128 -131 -188z" />
    <glyph glyph-name="D" unicode="D" horiz-adv-x="1331" 
d="M135 1434h500q150 0 267 -54.5t190.5 -151.5t111 -226.5t37.5 -284.5q0 -154 -37.5 -283.5t-111 -227t-190.5 -152t-267 -54.5h-500v1434zM610 1389h-258v-1344h260q112 0 200 74t133 192.5t65.5 262t-1 287t-67 262t-133.5 192.5t-199 74z" />
    <glyph glyph-name="E" unicode="E" horiz-adv-x="1032" 
d="M139 0v1434h850v-260l-65 47q-116 75 -269.5 121.5t-289.5 46.5h-11v-639h144q79 0 163 29.5t142 78.5l18 14v-294l-18 14q-58 49 -142 78.5t-163 29.5h-144v-655h11q137 0 290 47t267 123l67 47v-262h-850z" />
    <glyph glyph-name="F" unicode="F" horiz-adv-x="970" 
d="M139 0v1434h797v-258l-117 84q-84 58 -199.5 93.5t-220.5 35.5h-43v-672h41q82 0 176 23t166 61l80 41v-293l-80 43q-72 37 -166 59.5t-176 22.5h-41v-674h-217z" />
    <glyph glyph-name="G" unicode="G" horiz-adv-x="1660" 
d="M1268 918l-25 -11q-66 237 -211.5 363.5t-312.5 126.5q-104 0 -194 -49.5t-154 -145.5t-83.5 -237t17.5 -324q30 -141 94 -248.5t148 -170.5t178.5 -94.5t196.5 -31.5q118 0 230.5 39.5t199.5 110.5v442h-129q-92 0 -183.5 -43.5t-150.5 -114.5l-27 -34v237h692v-749
l-186 192q-193 -196 -532 -196q-159 0 -296 49.5t-239 141.5t-160.5 232.5t-58.5 313.5t58.5 314t160.5 232.5t239 141t296 49.5q58 0 129 -12t148.5 -40t140.5 -67t104 -99t41 -130q0 -130 -131 -188z" />
    <glyph glyph-name="H" unicode="H" horiz-adv-x="1411" 
d="M139 0v1434h217v-668h697v668h219v-1434h-219v721h-697v-721h-217z" />
    <glyph glyph-name="I" unicode="I" horiz-adv-x="497" 
d="M139 0v1434h217v-1434h-217z" />
    <glyph glyph-name="J" unicode="J" horiz-adv-x="1114" 
d="M229 1159v275h766v-967q0 -242 -115.5 -364.5t-344.5 -122.5q-142 0 -264 68.5t-171 187.5q-52 128 16 203t228 69q-53 -73 -61.5 -160t20.5 -157.5t90.5 -118t138.5 -47.5q125 0 185.5 80t60.5 219v1065h-59q-114 0 -233 -48.5t-203 -128.5z" />
    <glyph glyph-name="K" unicode="K" horiz-adv-x="1318" 
d="M356 1434v-914l469 502q74 78 91 184t-29 201l-6 27h403l-760 -797q57 14 117 14q100 0 195.5 -43.5t168 -112t135 -157t103 -173t66.5 -165.5h-265q-40 258 -191 430t-349 184l-148 -153v-461h-217v1434h217z" />
    <glyph glyph-name="L" unicode="L" horiz-adv-x="997" 
d="M856 180l105 80v-260h-820v1434h215v-1389h64q107 0 226.5 37.5t209.5 97.5z" />
    <glyph glyph-name="M" unicode="M" horiz-adv-x="1744" 
d="M1389 0v1329l-517 -1143h-61l-639 1117v-678q0 -154 69 -313t181 -265l57 -47h-352v1434h211l584 -1024l467 1024h217v-1434h-217z" />
    <glyph glyph-name="N" unicode="N" horiz-adv-x="1388" 
d="M1065 0l-889 1274v-637q0 -160 71.5 -324.5t188.5 -273.5l47 -39h-352v1434h191l888 -1264v629q0 158 -70.5 321.5t-185.5 272.5l-49 41h350v-1434h-190z" />
    <glyph glyph-name="O" unicode="O" horiz-adv-x="1705" 
d="M90 717q0 173 58.5 314t160.5 232.5t239 141t296 49.5q132 0 248.5 -29t212.5 -88.5t165 -146t107.5 -207.5t38.5 -266q0 -173 -59 -313.5t-163 -232.5t-244.5 -141.5t-305.5 -49.5q-159 0 -296 49.5t-239 141.5t-160.5 232.5t-58.5 313.5zM729 1389q-118 0 -210 -42.5
t-147 -116t-82.5 -167t-25.5 -201.5q2 -113 32.5 -228.5t89.5 -220t139 -186t189 -130t230 -48.5q103 0 187 27.5t141.5 76t97 114.5t56.5 142t16 160q-1 113 -33.5 229t-95.5 221.5t-147.5 188.5t-198 132t-238.5 49z" />
    <glyph glyph-name="P" unicode="P" horiz-adv-x="1167" 
d="M575 440h-219v-440h-217v1434h436q147 0 255.5 -38t170 -106t90.5 -151.5t29 -184.5q0 -108 -29.5 -197.5t-91.5 -162t-170.5 -113.5t-253.5 -41zM592 1391h-236v-906h238q64 0 117.5 31t89 83.5t60.5 120.5t30.5 143t1 150t-29 143t-59.5 120.5t-90.5 83.5t-121.5 31z
" />
    <glyph glyph-name="Q" unicode="Q" horiz-adv-x="1697" 
d="M90 717q0 173 58.5 314t160.5 232.5t239 141t296 49.5q132 0 248.5 -29t212.5 -88.5t165 -146t107.5 -207.5t38.5 -266q0 -241 -110.5 -412.5t-303.5 -255.5q97 -8 207 -45t211 -103t147 -143l-284 -34q-40 114 -131.5 189t-221.5 110q-130 -43 -286 -43
q-159 0 -296 49.5t-239 141.5t-160.5 232.5t-58.5 313.5zM729 1389q-118 0 -210 -42.5t-147 -116t-82.5 -167t-25.5 -201.5q2 -113 32.5 -228.5t89.5 -220t139 -186t189 -130t230 -48.5q103 0 187 27.5t141.5 76t97 114.5t56.5 142t16 160q-1 113 -33.5 229t-95.5 221.5
t-147.5 188.5t-198 132t-238.5 49z" />
    <glyph glyph-name="R" unicode="R" horiz-adv-x="1165" 
d="M141 0v1434h477q113 0 203.5 -36t145 -95.5t84 -136t28.5 -156.5t-29.5 -157.5t-81.5 -139.5t-137 -101.5t-186 -44.5q103 -18 186.5 -70.5t143.5 -134.5t100.5 -167t77.5 -195h-262q-8 71 -33.5 147.5t-68.5 151.5t-97.5 134.5t-127 96.5t-150.5 37h-58v-567h-215z
M356 612h258q52 0 96.5 26.5t74 71.5t51 103.5t27 123t2 128.5t-23 122.5t-49 103.5t-76.5 71.5t-104 26.5h-256v-777z" />
    <glyph glyph-name="S" unicode="S" horiz-adv-x="1255" 
d="M905 967l-20 2q8 92 -6 167.5t-43.5 125t-72.5 83t-90.5 48t-99.5 14.5q-123 0 -218 -71t-95 -175q0 -79 51.5 -145.5t133.5 -114.5t181 -92t198 -89t181 -95t133.5 -121.5t51.5 -157.5q0 -168 -137.5 -267t-374.5 -99q-207 0 -364 71t-232 219q-46 82 8.5 149.5
t169.5 67.5h27q13 -122 57.5 -215t108 -145.5t133.5 -78t145 -25.5q120 0 207.5 58.5t87.5 147.5q0 64 -31 117.5t-84 93.5t-121.5 75.5t-144.5 68t-151.5 65.5t-144 73.5t-121.5 87t-84 111t-31 140.5q0 173 130 283t386 110q200 0 328.5 -73.5t164.5 -221.5
q29 -89 -37 -148t-180 -44z" />
    <glyph glyph-name="T" unicode="T" horiz-adv-x="1159" 
d="M207 1317l-197 -139v256h1139v-256l-197 139q-54 32 -123.5 52t-130.5 20h-10v-1389h-217v1389h-10q-61 0 -130.5 -20t-123.5 -52z" />
    <glyph glyph-name="U" unicode="U" horiz-adv-x="1280" 
d="M850 1389l-51 45h360v-891q0 -113 -30 -207.5t-80 -159t-116 -110t-137 -66t-145 -20.5q-250 0 -390 140t-140 423v891h217v-996q0 -93 30 -169.5t81 -124.5t114.5 -73.5t132.5 -25.5q79 0 152 31.5t133.5 91.5t96.5 158t36 219v184q0 174 -72.5 356t-191.5 304z" />
    <glyph glyph-name="V" unicode="V" horiz-adv-x="1382" 
d="M1026 1405l-18 29h362l-557 -1434h-205l-598 1434h240l549 -1356l284 725q56 142 40.5 307.5t-97.5 294.5z" />
    <glyph glyph-name="W" unicode="W" horiz-adv-x="2007" 
d="M535 0l-523 1434h244l459 -1373l184 562q38 116 36.5 257.5t-44.5 256.5l-107 297h244l459 -1368l237 739q45 139 26 302.5t-95 287.5l-23 39h363l-488 -1434h-200l-295 809l-275 -809h-202z" />
    <glyph glyph-name="X" unicode="X" horiz-adv-x="1318" 
d="M1044 0l-426 641l-169 -201q-60 -69 -87.5 -166t-13.5 -188l14 -86h-352l584 680l-502 754h248l393 -592l137 159q63 74 90 177t5 196l-15 60h344l-536 -629l532 -805h-246z" />
    <glyph glyph-name="Y" unicode="Y" horiz-adv-x="1177" 
d="M838 1399l-19 35h348l-479 -891v-543h-217v543l-461 891h248l408 -848l163 311q59 113 61.5 250t-52.5 252z" />
    <glyph glyph-name="Z" unicode="Z" horiz-adv-x="1157" 
d="M254 1262l-125 -86v258h969l-772 -1393h161q113 0 238 39.5t217 105.5l96 74v-260h-981l774 1386h-157q-104 0 -219.5 -34t-200.5 -90z" />
    <glyph glyph-name="bracketleft" unicode="[" horiz-adv-x="520" 
d="M61 -182v1661h408v-45h-219v-1569h219v-47h-408z" />
    <glyph glyph-name="backslash" unicode="\" horiz-adv-x="813" 
d="M782 0h-51l-700 1434h51z" />
    <glyph glyph-name="bracketright" unicode="]" horiz-adv-x="520" 
d="M51 -182v47h219v1569h-219v45h406v-1661h-406z" />
    <glyph glyph-name="asciicircum" unicode="^" horiz-adv-x="751" 
d="M383 1434l287 -410h-45l-260 334l-240 -334h-43l264 410h37z" />
    <glyph glyph-name="underscore" unicode="_" horiz-adv-x="976" 
d="M82 0h813v-45h-813v45z" />
    <glyph glyph-name="grave" unicode="`" horiz-adv-x="382" 
d="M207 1698l125 -264h-45l-246 264h166z" />
    <glyph glyph-name="a" unicode="a" horiz-adv-x="1124" 
d="M395 729q-35 -14 -69 -14q-55 0 -89 33.5t-34 89.5q0 82 100 144t281 62q117 0 194.5 -21t129 -72t74 -132.5t22.5 -204.5v-614h-205v313q-161 -333 -385 -333q-153 0 -253 83.5t-100 239.5q0 133 105 206t311 73h322v211q0 101 -55.5 157t-133.5 56q-93 0 -159.5 -74.5
t-55.5 -202.5zM799 379v158h-316q-128 0 -190 -97.5t-15.5 -195t181.5 -97.5q187 0 340 232z" />
    <glyph glyph-name="b" unicode="b" horiz-adv-x="1243" 
d="M123 1436h211v-412h266q277 0 433 -178q121 -139 132 -339q10 -188 -81 -334q-97 -155 -267 -186q-38 -7 -78 -7q-69 0 -134.5 29.5t-116 79.5t-89 106.5t-65.5 119.5v-315h-211v1436zM334 979v-530q0 -41 25.5 -97t66.5 -109.5t102.5 -90.5t124.5 -37q148 0 228 128
q74 118 59 284q-15 179 -125 303q-133 149 -352 149h-129z" />
    <glyph glyph-name="c" unicode="c" horiz-adv-x="1144" 
d="M905 668l-53 -15q0 55 -22 113.5t-60.5 108t-100 81t-132.5 31.5q-138 0 -213 -129q-72 -122 -58 -296q16 -188 125 -317q129 -153 340 -153q105 0 195.5 54t134.5 173l26 -16q-134 -323 -444 -323q-114 0 -215.5 35.5t-179.5 101.5t-124 167.5t-46 225.5t46 225.5
t124 167.5t179.5 101.5t215.5 35.5q204 0 311 -101q73 -68 66 -149q-7 -75 -80 -110q-16 -7 -35 -12z" />
    <glyph glyph-name="d" unicode="d" horiz-adv-x="1228" 
d="M1120 1438v-1438h-211v315q-27 -63 -65.5 -119.5t-89 -106.5t-115.5 -79.5t-135 -29.5q-193 0 -313 149q-105 130 -113 317q-9 197 94 350q123 183 359 220q54 8 112 8h266v414h211zM909 979h-129q-229 0 -363 -163q-105 -128 -116 -305q-9 -167 69 -280
q80 -116 220 -116q63 0 124.5 37t102.5 90.5t66.5 109.5t25.5 97v530z" />
    <glyph glyph-name="e" unicode="e" horiz-adv-x="1173" 
d="M1077 352l37 -12q-74 -178 -182.5 -269t-286.5 -91q-114 0 -216 35.5t-180.5 101.5t-124.5 167.5t-46 225.5t46 225.5t124.5 167.5t180.5 101.5t216 35.5q100 0 188 -38.5t148.5 -102t95.5 -146t35 -169.5v-76h-836q14 -83 49 -155.5t90 -132t136.5 -94t179.5 -34.5
q97 0 204 75t142 185zM270 553h627q14 180 -91 307t-269 127q-94 0 -160 -63.5t-92.5 -161.5t-14.5 -209z" />
    <glyph glyph-name="f" unicode="f" horiz-adv-x="780" 
d="M524 1454q110 0 176 -57.5t66 -132.5q0 -64 -51.5 -96t-145.5 -27q36 86 29 146.5t-36.5 93t-67.5 32.5q-39 0 -66 -35.5t-27 -103.5v-250h349v-45h-349v-979h-206v979h-185v45h185v55q0 89 18.5 156.5t48 108.5t73.5 66.5t89 34.5t100 9z" />
    <glyph glyph-name="g" unicode="g" horiz-adv-x="1267" 
d="M944 1380q121 0 191.5 -39.5t77 -96.5t-20.5 -114.5t-98 -99.5t-158 -45q203 -101 203 -338q0 -98 -27.5 -171.5t-72.5 -118t-111.5 -71.5t-135 -36.5t-153.5 -9.5q-153 0 -260 45q-73 -41 -51 -88t125 -66l358 -68q229 -43 335 -173q89 -109 56 -232q-34 -127 -187 -210
q-185 -99 -480 -99q-276 0 -417 123q-102 89 -95 207q7 117 116 201q86 66 215 91q-70 17 -118.5 49.5t-64 72t-7 80t51.5 77t112 57.5q-95 52 -147 138.5t-52 201.5q0 188 138 292.5t372 104.5q141 0 250 -38q66 18 102 67.5t36.5 106t-30.5 113t-88 87.5h35zM557 993
q-166 0 -221 -123q-47 -107 3 -256q50 -147 163 -240q108 -89 233 -89q153 0 212 120q52 106 11 253q-41 149 -153 243q-109 92 -248 92zM764 -125l-305 72q-67 -7 -125.5 -24t-106 -55.5t-47.5 -90.5q0 -74 47.5 -132.5t126 -93t172 -52t193.5 -17.5q168 0 288.5 46
t120.5 122q0 53 -88 116.5t-276 108.5z" />
    <glyph glyph-name="h" unicode="h" horiz-adv-x="1159" 
d="M662 932q-83 0 -177.5 -75t-142.5 -189v-668h-213v1436h213v-691q69 128 170 209.5t215 81.5q160 0 242 -111t82 -309v-616h-211v680q0 252 -178 252z" />
    <glyph glyph-name="i" unicode="i" horiz-adv-x="452" 
d="M129 1024h211v-1024h-211v1024zM193 1401q121 7 176 -54q46 -52 13 -118q-43 -86 -191 -129q-28 -9 -60 -15l-2 21q40 19 69 55.5t39.5 78t0 85.5t-44.5 76z" />
    <glyph glyph-name="j" unicode="j" horiz-adv-x="450" 
d="M184 1401q121 7 176 -54q46 -52 13 -118q-43 -86 -190 -129q-28 -9 -60 -15l-2 21q84 40 107.5 134t-44.5 161zM121 -78v1102h211v-915q0 -73 -8 -132.5t-20.5 -102.5t-34.5 -76t-42.5 -54t-51.5 -34.5t-55 -20t-60 -8t-59.5 -0.5t-59.5 4v41q53 -7 89.5 4.5t56 40.5
t27 65t7.5 86z" />
    <glyph glyph-name="k" unicode="k" horiz-adv-x="1069" 
d="M340 1436v-1049l299 311q58 60 62.5 137.5t-46.5 143.5l-34 45h405l-510 -520q53 16 96 16q85 0 161.5 -48t132 -125.5t94 -166.5t57.5 -180h-285q19 118 -13.5 228.5t-106 178.5t-165.5 66l-147 -147v-326h-209v1436h209z" />
    <glyph glyph-name="l" unicode="l" horiz-adv-x="471" 
d="M340 1495v-1495h-211v1495h211z" />
    <glyph glyph-name="m" unicode="m" horiz-adv-x="1812" 
d="M129 1024h213v-266q67 124 161 201t204 77q127 0 205.5 -71t105.5 -201q66 122 159.5 197t202.5 75q160 0 242 -111t82 -309v-616h-211v680q0 252 -178 252q-75 0 -157 -62t-132 -163q6 -44 6 -91v-616h-211v680q0 123 -45.5 187.5t-134.5 64.5q-79 0 -166 -71.5
t-133 -182.5v-678h-213v1024z" />
    <glyph glyph-name="n" unicode="n" 
d="M117 1024h213v-279q69 128 170 209.5t215 81.5q159 0 241 -111t82 -309v-616h-211v680q0 252 -178 252q-83 0 -177 -75t-142 -189v-668h-213v1024z" />
    <glyph glyph-name="o" unicode="o" horiz-adv-x="1314" 
d="M82 510q0 124 47 225.5t126.5 167.5t183.5 101.5t220 35.5t218.5 -33.5t182.5 -98t126.5 -167t46.5 -231.5q0 -124 -46.5 -225.5t-126 -167.5t-183 -101.5t-218.5 -35.5q-116 0 -220 35.5t-183.5 101.5t-126.5 167.5t-47 225.5zM569 983q-173 0 -249 -146
q-68 -130 -36 -319t147 -324q134 -159 321 -159q171 0 247 145q69 129 39 317q-31 190 -144 325q-135 161 -325 161z" />
    <glyph glyph-name="p" unicode="p" horiz-adv-x="1251" 
d="M129 -412v1436h479q276 0 432 -178q121 -139 132 -339q11 -188 -80 -334q-96 -155 -266 -186q-38 -7 -78 -7q-70 0 -135.5 29.5t-116 79.5t-89 106.5t-65.5 119.5v-727h-213zM342 979v-530q0 -41 25.5 -97t66.5 -109.5t102 -90.5t123 -37q148 0 229 128q74 119 59 285
q-16 178 -125 301q-134 150 -351 150h-129z" />
    <glyph glyph-name="q" unicode="q" horiz-adv-x="1249" 
d="M1120 -412h-211v727q-27 -63 -65.5 -119.5t-89 -106.5t-116 -79.5t-134.5 -29.5q-193 0 -313 149q-105 130 -113 317q-9 197 94 350q123 183 359 220q54 8 112 8h477v-1436zM909 979h-129q-229 0 -363 -163q-105 -128 -116 -305q-9 -167 69 -280q80 -116 220 -116
q62 0 122 35.5t101 86.5t67.5 106.5t28.5 98.5v537z" />
    <glyph glyph-name="r" unicode="r" horiz-adv-x="849" 
d="M129 0v1024h213v-358q40 138 132.5 251t189.5 113q66 0 108.5 -33t52 -77.5t-9.5 -92t-65 -75.5q-59 88 -150 88q-100 0 -179 -98t-79 -246v-496h-213z" />
    <glyph glyph-name="s" unicode="s" horiz-adv-x="1021" 
d="M502 1044q182 0 291.5 -67t109.5 -148q0 -51 -51.5 -87.5t-151.5 -43.5q6 79 -14 140t-57.5 96.5t-84 53.5t-98.5 18q-88 0 -154.5 -46.5t-66.5 -117.5q0 -64 41.5 -111t107 -75t145.5 -51t160 -48t145.5 -57t107 -87.5t41.5 -131.5q0 -137 -109 -220.5t-323 -83.5
q-209 0 -348.5 81.5t-139.5 172.5q0 47 43 80t129 43q40 -169 141.5 -250t219.5 -81q94 0 161.5 47t67.5 118q0 63 -41 109t-106.5 73.5t-145 50t-158.5 46.5t-144.5 55.5t-106.5 85.5t-41 127q0 142 109 225.5t321 83.5z" />
    <glyph glyph-name="t" unicode="t" horiz-adv-x="673" 
d="M350 145q0 -104 86 -104q51 0 114.5 33.5t94.5 66.5l19 -32q-84 -64 -150 -96.5t-145 -32.5q-114 0 -174 70t-60 243v686h-125v45h125q48 0 83 19t53.5 46t29.5 67.5t13.5 72t2.5 71.5h33v-276h219v-45h-219v-834z" />
    <glyph glyph-name="u" unicode="u" horiz-adv-x="1140" 
d="M1016 0h-211v274q-71 -127 -170.5 -206.5t-212.5 -79.5q-160 0 -242 111t-82 309v616h211v-680q0 -252 178 -252q81 0 175 73t143 185v674h211v-1024z" />
    <glyph glyph-name="v" unicode="v" horiz-adv-x="1050" 
d="M733 985l-28 39h333l-440 -1024h-184l-404 1024h230l342 -946l202 469q44 104 30 225t-81 213z" />
    <glyph glyph-name="w" unicode="w" horiz-adv-x="1712" 
d="M680 981l-33 43h311l308 -946l184 467q43 106 27.5 227t-84.5 213l-27 39h334l-418 -1024h-184l-250 700l-285 -700h-186l-365 1024h228l307 -946l192 487q41 101 25 215.5t-84 200.5z" />
    <glyph glyph-name="x" unicode="x" horiz-adv-x="1101" 
d="M295 1024l315 -406l70 72q60 62 69.5 143.5t-34.5 155.5l-17 35h371l-430 -442l453 -582h-250l-342 440l-43 -43q-59 -60 -88 -147t-19 -170l12 -80h-352l463 475l-426 549h248z" />
    <glyph glyph-name="y" unicode="y" horiz-adv-x="1062" 
d="M520 -51l23 51h-129l-404 1024h230l342 -944l202 467q44 104 30 225t-81 213l-28 39h333l-546 -1282q-32 -75 -88.5 -113.5t-118.5 -38.5q-79 0 -128 58.5t-30 154.5l57 -12q45 -10 78 -10q82 0 151 44.5t107 123.5z" />
    <glyph glyph-name="z" unicode="z" horiz-adv-x="972" 
d="M305 922l-221 -156v258h848l-606 -983h133q68 0 143.5 24t130.5 64l176 131v-260h-868l641 977h-199q-44 0 -93.5 -15t-84.5 -40z" />
    <glyph glyph-name="braceleft" unicode="{" horiz-adv-x="681" 
d="M631 -297h-162q-33 0 -54 1.5t-47.5 7t-43 15.5t-34.5 28.5t-27.5 45t-16 66t-6.5 90.5v344q0 129 -38 207t-100 78h-59v45h59q61 0 99.5 65t38.5 166v344q0 74 12 127.5t31 85t50 49.5t62 23.5t74 5.5h162v-41h-103q-96 0 -96 -72v-583q0 -88 -57 -135t-154 -58
q97 -16 154 -78.5t57 -173.5v-561q0 -51 96 -51h103v-41z" />
    <glyph glyph-name="bar" unicode="|" horiz-adv-x="372" 
d="M164 -205v1741h45v-1741h-45z" />
    <glyph glyph-name="braceright" unicode="}" horiz-adv-x="667" 
d="M33 -297v41h102q94 0 94 51v561q0 111 57 173.5t154 78.5q-97 11 -154 58t-57 135v583q0 72 -94 72h-102v41h162q43 0 74 -5.5t61.5 -23.5t49.5 -49.5t30.5 -85t11.5 -127.5v-344q0 -101 38 -166t99 -65h59v-45h-59q-62 0 -99.5 -78t-37.5 -207v-344q0 -59 -7.5 -102.5
t-23.5 -71t-33.5 -44t-47 -24.5t-53.5 -10t-62 -2h-162z" />
    <glyph glyph-name="asciitilde" unicode="~" horiz-adv-x="985" 
d="M315 711q65 0 232 -56.5t229 -56.5q103 0 103 113h45q0 -136 -57.5 -202.5t-164.5 -66.5q-70 0 -169 29t-189 58.5t-139 29.5q-101 0 -101 -117h-43q0 144 69.5 206.5t184.5 62.5z" />
    <glyph glyph-name="preview" unicode="&#xe000;" horiz-adv-x="0" 
d="M1268 918l-25 -11q-66 237 -211.5 363.5t-312.5 126.5q-104 0 -194 -49.5t-154 -145.5t-83.5 -237t17.5 -324q30 -141 94 -248.5t148 -170.5t178.5 -94.5t196.5 -31.5q118 0 230.5 39.5t199.5 110.5v442h-129q-92 0 -183.5 -43.5t-150.5 -114.5l-27 -34v237h692v-749
l-186 192q-193 -196 -532 -196q-159 0 -296 49.5t-239 141.5t-160.5 232.5t-58.5 313.5t58.5 314t160.5 232.5t239 141t296 49.5q58 0 129 -12t148.5 -40t140.5 -67t104 -99t41 -130q0 -130 -131 -188zM1894 1495v-1495h-211v1495h211zM2007 510q0 124 47 225.5t127 167.5
t184 101.5t220 35.5t218.5 -33.5t182 -98t126 -167t46.5 -231.5q0 -124 -46.5 -225.5t-126 -167.5t-182.5 -101.5t-218 -35.5q-116 0 -220 35.5t-184 101.5t-127 167.5t-47 225.5zM2494 983q-173 0 -249 -146q-68 -130 -36 -319t147 -324q135 -158 321 -159q171 0 247 145
q69 129 39 317q-31 190 -144 325q-135 161 -325 161zM3267 0v1024h213v-358q25 88 73.5 169.5t115.5 138t132 56.5q66 0 108.5 -33t52 -77.5t-9.5 -92t-65 -75.5q-59 88 -149 88q-100 0 -179 -98t-79 -246v-496h-213zM4059 1024h211v-1024h-211v1024zM4123 1401
q121 7 176 -54q46 -52 13 -118q-43 -86 -191 -129q-28 -9 -60 -15l-2 21q40 19 69 55.5t39.5 78t0 85.5t-44.5 76zM4897 1454q110 0 175.5 -57t65.5 -133q0 -64 -51 -96t-145 -27q36 86 29 146.5t-37 93t-68 32.5t-65 -35.5t-27 -103.5v-250h348v-45h-348v-979h-207v979
h-184v45h184v55q0 89 18.5 156.5t48.5 108.5t74 66.5t89 34.5t100 9zM5612 -51l22 51h-129l-403 1024h229l342 -944l203 467q44 104 30 225t-81 213l-29 39h334l-547 -1282q-32 -75 -88.5 -113.5t-118.5 -38.5q-79 0 -128 58.5t-30 154.5l58 -12q45 -10 77 -10
q82 0 151.5 44.5t107.5 123.5z" />
    </font>
</defs>
</svg>
