<svg xmlns="http://www.w3.org/2000/svg" width="116.779" height="118.502" viewBox="0 0 116.779 118.502">
  <path id="Subtraction_5" data-name="Subtraction 5" d="M-2139-9428a58.626,58.626,0,0,1-22.967-4.635,58.811,58.811,0,0,1-18.754-12.646,58.839,58.839,0,0,1-12.645-18.754A58.635,58.635,0,0,1-2198-9487a58.631,58.631,0,0,1,4.636-22.965,58.794,58.794,0,0,1,12.645-18.754,58.808,58.808,0,0,1,18.754-12.645A58.618,58.618,0,0,1-2139-9546a58.824,58.824,0,0,1,19.665,3.357,58.736,58.736,0,0,1,16.857,9.3,59.21,59.21,0,0,1,12.9,14.1,58.586,58.586,0,0,1,7.786,17.741h-1.03a57.8,57.8,0,0,0-2.733-8.075,58.036,58.036,0,0,0-5.347-9.853,58.167,58.167,0,0,0-7.083-8.583,58.19,58.19,0,0,0-8.584-7.085,58.039,58.039,0,0,0-9.852-5.347A57.622,57.622,0,0,0-2139-9545a57.65,57.65,0,0,0-22.577,4.556,58.1,58.1,0,0,0-9.851,5.348,58.274,58.274,0,0,0-8.584,7.084,58.283,58.283,0,0,0-7.084,8.584,58.02,58.02,0,0,0-5.347,9.853A57.626,57.626,0,0,0-2197-9487a57.657,57.657,0,0,0,4.557,22.578,58.031,58.031,0,0,0,5.347,9.852,58.216,58.216,0,0,0,7.084,8.583,58.155,58.155,0,0,0,8.584,7.083,57.866,57.866,0,0,0,9.851,5.351A57.67,57.67,0,0,0-2139-9429a57.643,57.643,0,0,0,22.575-4.558,57.781,57.781,0,0,0,9.852-5.348,58.2,58.2,0,0,0,8.583-7.084,58.166,58.166,0,0,0,7.084-8.584,58.135,58.135,0,0,0,5.347-9.852,58.032,58.032,0,0,0,2.466-7.076h1.035a58.645,58.645,0,0,1-7.941,17.371,59.223,59.223,0,0,1-12.874,13.778,58.769,58.769,0,0,1-16.7,9.078A58.886,58.886,0,0,1-2139-9428Z" transform="translate(2198.25 9546.251)" stroke="#000" stroke-width="0.5"/>
</svg>
