<svg xmlns="http://www.w3.org/2000/svg" width="25.481" height="28.449" viewBox="0 0 25.481 28.449">
  <g id="noun-profile-1594243" transform="translate(0.5 0.5)">
    <path id="Path_2304" data-name="Path 2304" d="M282.084,203.476a.371.371,0,1,1-.742,0,11.5,11.5,0,0,0-23,0,.371.371,0,1,1-.742,0,12.24,12.24,0,1,1,24.481,0Zm-12.24-12.983a7.048,7.048,0,1,1,7.048-7.048A7.048,7.048,0,0,1,269.843,190.494Zm0-.742a6.306,6.306,0,1,0-6.306-6.306A6.306,6.306,0,0,0,269.843,189.752Z" transform="translate(-257.603 -176.398)" stroke="#000" stroke-width="1"/>
  </g>
</svg>
