<svg xmlns="http://www.w3.org/2000/svg" width="33.901" height="28.251" viewBox="0 0 33.901 28.251">
  <g id="trolley" transform="translate(0 -4)">
    <path id="Path_2301" data-name="Path 2301" d="M27.422,25.189H14.14a3.528,3.528,0,0,1-3.392-2.565L6.258,6.949A2.114,2.114,0,0,0,4.224,5.413H.706A.706.706,0,0,1,.706,4H4.224A3.528,3.528,0,0,1,7.615,6.565L8.5,9.65H31.781a2.117,2.117,0,0,1,2.028,2.726L30.771,22.759A3.526,3.526,0,0,1,27.422,25.189ZM8.9,11.063l3.2,11.176a2.111,2.111,0,0,0,2.033,1.537H27.422a2.132,2.132,0,0,0,2-1.438l3.036-10.365a.707.707,0,0,0-.677-.91Z" transform="translate(0 0)"/>
    <path id="Path_2302" data-name="Path 2302" d="M11.825,25.65a2.825,2.825,0,1,1,2.825-2.825A2.828,2.828,0,0,1,11.825,25.65Zm0-4.238a1.413,1.413,0,1,0,1.413,1.413A1.414,1.414,0,0,0,11.825,21.413Z" transform="translate(3.713 6.601)"/>
    <path id="Path_2303" data-name="Path 2303" d="M18.825,25.65a2.825,2.825,0,1,1,2.825-2.825A2.828,2.828,0,0,1,18.825,25.65Zm0-4.238a1.413,1.413,0,1,0,1.413,1.413A1.414,1.414,0,0,0,18.825,21.413Z" transform="translate(6.601 6.601)"/>
  </g>
</svg>
