<svg id="Component_5_1" data-name="Component 5 – 1" xmlns="http://www.w3.org/2000/svg" width="111.652" height="22.92" viewBox="0 0 111.652 22.92">
  <path id="Path_2332" data-name="Path 2332" d="M67.3-43.356c0,4.662,1.668,8.9,7.507,8.9,5.73,0,7.29-4.238,7.29-8.9s-1.56-8.933-7.4-8.933c-5.73,0-7.4,4.271-7.4,8.933m20.491,0c0,6.488-5.222,11.443-13.092,11.443S61.6-36.869,61.6-43.356,66.825-54.833,74.7-54.833s13.092,4.988,13.092,11.477" transform="translate(-35.853 54.833)"/>
  <path id="Path_2333" data-name="Path 2333" d="M194.266-43.356c0,4.662,1.669,8.9,7.508,8.9,5.73,0,7.289-4.238,7.289-8.9s-1.559-8.933-7.4-8.933c-5.73,0-7.4,4.271-7.4,8.933m20.491,0c0,6.488-5.222,11.443-13.092,11.443s-13.092-4.956-13.092-11.443,5.222-11.477,13.092-11.477,13.092,4.988,13.092,11.477" transform="translate(-109.75 54.833)"/>
  <path id="Path_2334" data-name="Path 2334" d="M254.415-13.442h.323c.441,0,.589-.4.589-.818,0-.534-.239-.709-.58-.709h-.331Zm-1.186-1.738h1.812c.579,0,1.076.267,1.076.883a1,1,0,0,1-.744.947l.543.754a5.424,5.424,0,0,0,.653.762v.111h-.754c-.295,0-.561-.782-1.058-1.527h-.341v.956c0,.341-.009.377.433.405v.166h-1.619v-.166c.441-.028.433-.064.433-.405v-2.326c0-.331.009-.368-.433-.4Zm4.157,1.794a2.673,2.673,0,0,0-2.594-2.768,2.678,2.678,0,0,0-2.593,2.768,2.67,2.67,0,0,0,2.593,2.759,2.67,2.67,0,0,0,2.594-2.759m-5.849,0a3.2,3.2,0,0,1,3.255-3.237,3.194,3.194,0,0,1,3.256,3.237,3.187,3.187,0,0,1-3.256,3.228,3.192,3.192,0,0,1-3.255-3.228" transform="translate(-146.395 32.595)"/>
  <path id="Path_2335" data-name="Path 2335" d="M15.338-35.251V-50.867c4.481,0,6.7,1.565,6.7,5.021V-45h2.987V-53.28H0V-45H2.987v-.851c0-3.456,2.22-5.021,6.7-5.021v15.616c0,.849-.4,1.174-1.655,1.174H4.965v2.413h15.1v-2.413H16.993c-1.251,0-1.655-.326-1.655-1.174" transform="translate(0 53.929)"/>
  <path id="Path_2336" data-name="Path 2336" d="M141.534-35.251V-50.867c4.48,0,6.7,1.565,6.7,5.021V-45h2.987V-53.28H126.2V-45h2.987v-.851c0-3.456,2.221-5.021,6.7-5.021v15.616c0,.849-.4,1.174-1.655,1.174h-3.068v2.413h15.1v-2.413h-3.068c-1.251,0-1.655-.326-1.655-1.174" transform="translate(-73.446 53.929)"/>
</svg>
