<svg id="Component_7_1" data-name="Component 7 – 1" xmlns="http://www.w3.org/2000/svg" width="142.859" height="43.894" viewBox="0 0 142.859 43.894">
  <path id="Path_2344" data-name="Path 2344" d="M215.74-75.348h6.316v7.992h6.23v-7.992H234.6v22.9h-6.317V-61.04h-6.23v8.594H215.74Z" transform="translate(-146.388 95.02)" fill-rule="evenodd"/>
  <path id="Path_2345" data-name="Path 2345" d="M279.5-75.348h6.316v16.994h6.961v5.908H279.5Z" transform="translate(-189.652 95.02)" fill-rule="evenodd"/>
  <path id="Path_2346" data-name="Path 2346" d="M324.813-75.348h12.762v5.264h-6.446v3.523h6.446V-61.3h-6.446v3.588h6.446v5.264H324.813Z" transform="translate(-220.399 95.02)" fill-rule="evenodd"/>
  <path id="Path_2347" data-name="Path 2347" d="M368.922-75.348h6.317a21.649,21.649,0,0,1,3.48.323c3.609.77,6.531,4.661,5.586,8.382a8.74,8.74,0,0,1-3.781,5.132c2.2,3,4.341,6.033,6.488,9.066h-6.789c-1.716-2.208-3.352-4.5-4.984-6.75v6.75h-6.317Zm6.317,5.295v4.468c1.037-.046,2.234.179,3.008-.631a2.105,2.105,0,0,0,.043-3.122C377.474-70.109,376.31-69.994,375.239-70.053Z" transform="translate(-250.329 95.02)" fill-rule="evenodd"/>
  <path id="Path_2348" data-name="Path 2348" d="M163.022-65.567A11.875,11.875,0,0,0,151.2-77.492a11.875,11.875,0,0,0-11.823,11.925A11.875,11.875,0,0,0,151.2-53.641,11.875,11.875,0,0,0,163.022-65.567ZM151.2-71.429a5.6,5.6,0,0,1,5.293,5.862A5.6,5.6,0,0,1,151.2-59.7a5.6,5.6,0,0,1-5.293-5.862A5.6,5.6,0,0,1,151.2-71.429Z" transform="translate(-94.573 96.475)" fill-rule="evenodd"/>
  <path id="Path_2349" data-name="Path 2349" d="M106.941-75.339c-2.978,3.648-6.013,7.249-8.98,10.9l10.312,11.988H99.937l-7-8.2v8.2H86.617v-22.9h6.316v6.76l5.986-6.751Z" transform="translate(-58.773 95.02)" fill-rule="evenodd"/>
  <path id="Path_2350" data-name="Path 2350" d="M0-136.067H9.066v.967H5.078v14.427H4.039V-135.1H0Z" transform="translate(0 136.221)" fill-rule="evenodd"/>
  <path id="Path_2351" data-name="Path 2351" d="M30.72-120.65v-15.383h1.039v6.467h9.274v-6.467h1.039v15.383H41.033V-128.6H31.759v7.949Z" transform="translate(-20.845 136.198)" fill-rule="evenodd"/>
  <path id="Path_2352" data-name="Path 2352" d="M71.111-120.65v-15.383h7.348v.967H72.15v5.5h6.309v.967H72.15v6.982h6.309v.967Z" transform="translate(-48.252 136.198)" fill-rule="evenodd"/>
  <path id="Path_2353" data-name="Path 2353" d="M112.548-120.676v-15.383h1.039a14.257,14.257,0,0,1,4.29.342,4.081,4.081,0,0,1,.559,6.906,4.331,4.331,0,0,1,2.836,2.5,4.2,4.2,0,0,1-3.051,5.472,26.885,26.885,0,0,1-4.633.164Zm1.039-14.438v6c1.287-.042,2.659.215,3.86-.258,2.192-.862,2.149-4.493,0-5.4A12.908,12.908,0,0,0,113.587-135.113Zm0,13.492c.847.033,1.8.039,2.722.033a4.305,4.305,0,0,0,3.158-1.018c1.59-1.336,1.246-4.395-.773-5.127-1.633-.56-3.395-.345-5.07-.431C113.535-125.987,113.587-123.8,113.587-121.622Z" transform="translate(-76.368 136.223)" fill-rule="evenodd"/>
  <path id="Path_2354" data-name="Path 2354" d="M193.551-120.65v-15.383h1.039v14.416h6.266v.967Z" transform="translate(-131.332 136.198)" fill-rule="evenodd"/>
  <path id="Path_2355" data-name="Path 2355" d="M219.215-120.65v-15.383h1.039v0c2.425,0,5-.03,6.953,1.59a7.976,7.976,0,0,1,.129,12.115c-1.957,1.7-4.607,1.711-7.082,1.659v.014Zm1.039-14.434v13.5c2.352.084,5.076.028,6.825-1.856a6.94,6.94,0,0,0-.387-10.088C224.943-135.115,222.433-135.085,220.254-135.085Z" transform="translate(-148.746 136.198)" fill-rule="evenodd"/>
  <path id="Path_2356" data-name="Path 2356" d="M272.415-120.65v-15.383h1.039v14.416h6.266v.967Z" transform="translate(-184.845 136.198)" fill-rule="evenodd"/>
  <path id="Path_2357" data-name="Path 2357" d="M392.018-120.65v-15.383h1.039v6.917l6.976-6.917h1.473l-7.456,7.394L402-120.65h-1.469l-7.47-7.514v7.514Z" transform="translate(-266 136.198)" fill-rule="evenodd"/>
  <path id="Path_2358" data-name="Path 2358" d="M53.334-60.232V-75.615h6.144v.967H54.373v5.521h5v.967h-5v7.928Z" transform="translate(-36.189 95.201)" fill-rule="evenodd"/>
  <path id="Path_2359" data-name="Path 2359" d="M9.111-75.16a6.913,6.913,0,0,1,6.912,6.912,6.913,6.913,0,0,1-6.912,6.912A6.913,6.913,0,0,1,2.2-68.248,6.913,6.913,0,0,1,9.111-75.16Zm7.856,6.912A7.858,7.858,0,0,0,9.111-76.1a7.858,7.858,0,0,0-7.856,7.856,7.857,7.857,0,0,0,7.856,7.856A7.857,7.857,0,0,0,16.967-68.248Z" transform="translate(-0.852 95.533)" fill-rule="evenodd"/>
  <path id="Path_2360" data-name="Path 2360" d="M149.354-135.6a6.913,6.913,0,0,1,6.912,6.912,6.913,6.913,0,0,1-6.912,6.912,6.913,6.913,0,0,1-6.912-6.912A6.913,6.913,0,0,1,149.354-135.6Zm7.856,6.912a7.857,7.857,0,0,0-7.856-7.856,7.857,7.857,0,0,0-7.856,7.856,7.857,7.857,0,0,0,7.856,7.856A7.858,7.858,0,0,0,157.21-128.689Z" transform="translate(-96.012 136.545)" fill-rule="evenodd"/>
  <path id="Path_2361" data-name="Path 2361" d="M295.921-135.6a6.913,6.913,0,0,1,6.912,6.912,6.913,6.913,0,0,1-6.912,6.912,6.913,6.913,0,0,1-6.912-6.912A6.913,6.913,0,0,1,295.921-135.6Zm7.856,6.912a7.857,7.857,0,0,0-7.856-7.856,7.857,7.857,0,0,0-7.856,7.856,7.858,7.858,0,0,0,7.856,7.856A7.857,7.857,0,0,0,303.777-128.689Z" transform="translate(-195.464 136.545)" fill-rule="evenodd"/>
  <path id="Path_2362" data-name="Path 2362" d="M347.865-135.6a6.913,6.913,0,0,1,6.912,6.912,6.913,6.913,0,0,1-6.912,6.912,6.913,6.913,0,0,1-6.912-6.912A6.913,6.913,0,0,1,347.865-135.6Zm7.856,6.912a7.857,7.857,0,0,0-7.856-7.856,7.857,7.857,0,0,0-7.856,7.856,7.858,7.858,0,0,0,7.856,7.856A7.857,7.857,0,0,0,355.721-128.689Z" transform="translate(-230.71 136.545)" fill-rule="evenodd"/>
  <path id="Path_2363" data-name="Path 2363" d="M432.275-14.457a2.317,2.317,0,0,1,1.643.681,2.317,2.317,0,0,1,.681,1.643,2.317,2.317,0,0,1-.681,1.643,2.317,2.317,0,0,1-1.643.681,2.318,2.318,0,0,1-1.643-.681,2.317,2.317,0,0,1-.681-1.643,2.317,2.317,0,0,1,.681-1.643A2.318,2.318,0,0,1,432.275-14.457Zm1.321,1A1.861,1.861,0,0,0,432.275-14a1.863,1.863,0,0,0-1.321.547,1.862,1.862,0,0,0-.547,1.321,1.862,1.862,0,0,0,.547,1.321,1.862,1.862,0,0,0,1.321.547,1.861,1.861,0,0,0,1.321-.547,1.862,1.862,0,0,0,.547-1.321A1.862,1.862,0,0,0,433.6-13.454Z" transform="translate(-291.74 53.703)"/>
  <path id="Path_2364" data-name="Path 2364" d="M436.332-8.537h-.449l-.366-.969h-.6v.969h-.425v-2.357h1.022a.877.877,0,0,1,.627.193.658.658,0,0,1,.2.5.622.622,0,0,1-.425.625Zm-1.413-1.309h.529a.513.513,0,0,0,.342-.1.332.332,0,0,0,.112-.266.315.315,0,0,0-.111-.251.454.454,0,0,0-.309-.1h-.563Z" transform="translate(-294.822 51.286)"/>
</svg>
