<svg id="Ebene_x0020_1" xmlns="http://www.w3.org/2000/svg" width="159.997" height="37.82" viewBox="0 0 159.997 37.82">
  <path id="path10" d="M85.852,4.388l10.01,25.523H91.539l-1.691-4.295H81.12l-1.85,4.295H72.664l-5.612-8.487v8.487H62.837V6.67l7.765.009a6.8,6.8,0,0,1,6.734,7.149,7.043,7.043,0,0,1-5.725,7.332c1.4,1.989,2.859,4.108,4.285,6.12L85.708,4.386l.144,0ZM67.053,17.1h3.458c2.154,0,2.593-1.724,2.593-3.271,0-1.659-.675-2.937-2.556-2.937h-3.5V17.1Zm15.864,4.321H88.21l-2.533-6.44-2.76,6.44Z" transform="translate(24.241 1.692)" fill="#004d94"/>
  <path id="path12" d="M22.6,29.7l-6,6.357L11.519,17.335,0,4.572,16.637,6.31l12.413,8.442,5.263,8.193L15.25,9.936,9.092,9.141,26.715,28.309l1.539-4.718A7.979,7.979,0,0,0,36.4,25.678a8.3,8.3,0,0,0,5.27-5.959,8.017,8.017,0,0,0-2.783-7.846,7.08,7.08,0,0,0-6.461-1.689,9.121,9.121,0,0,0-4.413,2.583l-3.678-2.434A12.457,12.457,0,0,1,37.544,6.112c4.323,1.341,8.2,5.761,8.592,10.28.493,5.661-1.987,10.528-7.2,12.862a11.283,11.283,0,0,1-8.44.646l-2.078,6.157L22.6,29.7Zm-4.626-.41,2-2.585-3.837-4.255,1.835,6.84Z" transform="translate(0 1.764)" fill="#004d94"/>
  <path id="path14" d="M9.779,10.376a1.168,1.168,0,1,1,1.167,1.177A1.172,1.172,0,0,1,9.779,10.376Z" transform="translate(3.772 3.549)" fill="#004d94"/>
  <path id="polygon16" d="M94.178,34.483,80.271,0l4.414,0,9.516,23.6,6.234-15.245h4.474Z" transform="translate(30.966)" fill="#004d94"/>
  <path id="polygon18" d="M103.7,29.275H99.532V6.034H103.7Z" transform="translate(38.397 2.328)" fill="#004d94"/>
  <path id="polygon20" d="M119.825,10.255h-5.809v19.02h-4.148V10.256h-5.733V6.034h15.69Z" transform="translate(40.172 2.328)" fill="#004d94"/>
  <path id="path22" d="M53.139,17.116c0,3.663-.493,7.884,4.042,7.884,4.421,0,3.989-4.169,3.989-7.891V6.034h4.163V20.8c0,3.1-2.184,8.475-8.152,8.475-5.953,0-8.205-5.373-8.205-8.475V6.034h4.163s0,10.487,0,11.082Z" transform="translate(18.893 2.328)" fill="#004d94"/>
  <path id="path24" d="M41.939,25.044a14.319,14.319,0,0,1-2.525.153V10.173a14.443,14.443,0,0,1,2.533.158,7.387,7.387,0,0,1,6.089,7.534,7.068,7.068,0,0,1-6.1,7.179ZM39.232,6.034H35.076V29.275h3.852c6.658,0,13.126-3.548,13.126-11.635,0-6.9-4.254-11.605-12.823-11.605Z" transform="translate(13.531 2.328)" fill="#004d94"/>
</svg>
