<svg xmlns="http://www.w3.org/2000/svg" width="124" height="26.049" viewBox="0 0 124 26.049">
  <g id="Group_16455" data-name="Group 16455" transform="translate(-165 -1019.95)">
    <path id="Path_2337" data-name="Path 2337" d="M165.6-17.811V-35.949h2.854v22.436h-3.33l-11.256-18.1v18.1h-2.89V-35.949H154.5Z" transform="translate(120.545 1056.584)" fill-rule="evenodd"/>
    <path id="Path_2338" data-name="Path 2338" d="M137.114-16.21v2.68h-16.24V-36.006H136.62v3.062H124.3v6.293h11.049v2.7H124.3v7.739Z" transform="translate(129.409 1056.601)" fill-rule="evenodd"/>
    <path id="Path_2339" data-name="Path 2339" d="M97.378-23.548v10.1H94.031V-35.736H108.96v2.719H97.378v6.79h9.565v2.68Z" transform="translate(137.313 1056.522)" fill-rule="evenodd"/>
    <path id="Path_2340" data-name="Path 2340" d="M61.852-21.618v-15.2h3.061v14.622a5.829,5.829,0,0,0,1.41,4.089,5.539,5.539,0,0,0,4.3,1.655,5.821,5.821,0,0,0,4.257-1.58,5.513,5.513,0,0,0,1.619-4.107v-14.68h3.041v15.059a7.344,7.344,0,0,1-2.509,5.763,9.777,9.777,0,0,1-6.693,2.224,8.8,8.8,0,0,1-5.819-1.994A7.243,7.243,0,0,1,61.852-21.618Z" transform="translate(146.788 1056.839)" fill-rule="evenodd"/>
    <path id="Path_2341" data-name="Path 2341" d="M3.4-36.006V-16.8H15.289v3.268H0V-36.006Z" transform="translate(165 1056.601)" fill-rule="evenodd"/>
    <path id="Path_2342" data-name="Path 2342" d="M28.986-16.842h4.659V-13.8H23.529L36.745-36.92,50.416-13.8H39.9v-3.043h5.057L36.745-31.083Z" transform="translate(158.072 1056.87)" fill-rule="evenodd"/>
    <path id="Path_2343" data-name="Path 2343" d="M40.239-13.831v8.84L43.6-8.357V-16.95Z" transform="translate(153.152 1050.99)" fill="#54418b" fill-rule="evenodd"/>
  </g>
</svg>
