<svg xmlns="http://www.w3.org/2000/svg" width="46.247" height="46.245" viewBox="0 0 46.247 46.245">
  <g id="Group_18867" data-name="Group 18867" transform="translate(14428.123 -4764)">
    <path id="Path_2444" data-name="Path 2444" d="M354.619-350.423a20.807,20.807,0,0,1-2.856-.216,20.962,20.962,0,0,1-5.4-1.527,21.309,21.309,0,0,1-11.136-11.147,21.032,21.032,0,0,1-1.53-5.4,20.7,20.7,0,0,1-.216-2.856l.856,0a19.849,19.849,0,0,0,.207,2.738,20.184,20.184,0,0,0,1.468,5.182,20.459,20.459,0,0,0,10.691,10.7,20.113,20.113,0,0,0,5.182,1.465,19.961,19.961,0,0,0,2.739.207Z" transform="translate(-14736.964 5136.038)"/>
    <path id="Path_2445" data-name="Path 2445" d="M240.822-237.524a19.889,19.889,0,0,0-.207-2.738,20.186,20.186,0,0,0-1.468-5.182,20.446,20.446,0,0,0-10.691-10.7,20.112,20.112,0,0,0-5.182-1.468,19.958,19.958,0,0,0-2.742-.207l0-.856a20.836,20.836,0,0,1,2.859.216,20.963,20.963,0,0,1,5.4,1.53,21.3,21.3,0,0,1,11.135,11.144,21.035,21.035,0,0,1,1.53,5.4,20.736,20.736,0,0,1,.216,2.856Z" transform="translate(-14648.192 5047.305)"/>
    <path id="Path_2446" data-name="Path 2446" d="M220.538-350.423l0-.856a19.987,19.987,0,0,0,2.741-.207,20.121,20.121,0,0,0,5.182-1.468,20.447,20.447,0,0,0,10.691-10.7,20.183,20.183,0,0,0,1.468-5.182,19.872,19.872,0,0,0,.207-2.739l.856,0a20.732,20.732,0,0,1-.216,2.857,21.028,21.028,0,0,1-1.53,5.4A21.3,21.3,0,0,1,228.8-352.168a20.976,20.976,0,0,1-5.4,1.53,20.8,20.8,0,0,1-2.858.216" transform="translate(-14648.192 5136.038)"/>
    <path id="Path_2447" data-name="Path 2447" d="M334.337-237.524l-.856,0a20.726,20.726,0,0,1,.216-2.857,21.044,21.044,0,0,1,1.53-5.4,21.309,21.309,0,0,1,11.136-11.146,20.967,20.967,0,0,1,5.4-1.527,20.815,20.815,0,0,1,2.855-.216l0,.856a19.921,19.921,0,0,0-2.738.207,20.12,20.12,0,0,0-5.183,1.465,20.457,20.457,0,0,0-10.691,10.7,20.193,20.193,0,0,0-1.468,5.182,19.868,19.868,0,0,0-.207,2.739" transform="translate(-14736.964 5047.305)"/>
    <path id="Path_2448" data-name="Path 2448" d="M239.112-372.8A22.223,22.223,0,0,0,219.3-352.99a20.116,20.116,0,0,0,2.267-.2,20.107,20.107,0,0,0,5.182-1.468,20.447,20.447,0,0,0,10.691-10.7h0l.008-.019a20.179,20.179,0,0,0,1.46-5.163,19.924,19.924,0,0,0,.2-2.265m-20.745,20.68.039-.467a23.167,23.167,0,0,1,6.7-14.408,23.166,23.166,0,0,1,14.4-6.7l.467-.04,0,.469a20.766,20.766,0,0,1-.216,2.857,21.036,21.036,0,0,1-1.5,5.34l-.026.061a21.3,21.3,0,0,1-11.136,11.144,20.967,20.967,0,0,1-5.4,1.53,20.867,20.867,0,0,1-2.858.216Zm43.044-1.066a20.085,20.085,0,0,0,2.266.2,22.217,22.217,0,0,0-19.8-19.813,19.95,19.95,0,0,0,.2,2.264,20.185,20.185,0,0,0,1.468,5.182h0a20.458,20.458,0,0,0,10.691,10.7,20.131,20.131,0,0,0,4.9,1.423l.286.043m3.2,1.066-.469,0a20.869,20.869,0,0,1-2.856-.216l-.021,0a20.955,20.955,0,0,1-5.18-1.439l-.023-.01-.177-.076a21.313,21.313,0,0,1-11.136-11.147,21.037,21.037,0,0,1-1.53-5.4,20.738,20.738,0,0,1-.216-2.856l0-.469.467.04a23.164,23.164,0,0,1,14.4,6.7,23.159,23.159,0,0,1,6.7,14.408Zm-45.31,3.877a22.223,22.223,0,0,0,19.807,19.812,19.947,19.947,0,0,0-.2-2.264,20.194,20.194,0,0,0-1.468-5.182h0a20.446,20.446,0,0,0-10.69-10.7,20.122,20.122,0,0,0-5.182-1.468,20.079,20.079,0,0,0-2.268-.2m20.675,20.75-.467-.04a23.166,23.166,0,0,1-14.4-6.7,23.167,23.167,0,0,1-6.7-14.407l-.039-.467.468,0a20.836,20.836,0,0,1,2.859.216,20.973,20.973,0,0,1,5.4,1.53,21.3,21.3,0,0,1,11.135,11.144l.008.018v0l.007.016,0,.009,0,.006a21.039,21.039,0,0,1,1.5,5.292l.008.057a20.745,20.745,0,0,1,.216,2.856Zm5.51-8.269a20.186,20.186,0,0,0-1.418,5.066,19.979,19.979,0,0,0-.2,2.265,22.217,22.217,0,0,0,19.8-19.812,20.024,20.024,0,0,0-2.264.2h0l-.1.015a20.122,20.122,0,0,0-5.078,1.45h0a20.457,20.457,0,0,0-10.691,10.7h0l-.05.115M243-327.5l0-.469a20.763,20.763,0,0,1,.216-2.857,21.112,21.112,0,0,1,.709-3.175h0l0-.006v-.005h0a20.993,20.993,0,0,1,.778-2.122h0l.005-.013.009-.022.024-.055a21.311,21.311,0,0,1,11.136-11.146,20.973,20.973,0,0,1,5.4-1.527,20.82,20.82,0,0,1,2.855-.216l.469,0-.039.467a23.159,23.159,0,0,1-6.7,14.407,23.164,23.164,0,0,1-14.4,6.7Z" transform="translate(-14646.49 5137.74)"/>
    <path id="Path_2449" data-name="Path 2449" d="M336.248-232.272l-.166-.84c3.745-.74,7.2-3.556,9.468-7.727a23.765,23.765,0,0,0,2.6-8.126l.848.115a24.634,24.634,0,0,1-2.7,8.421c-2.394,4.394-6.059,7.368-10.054,8.157" transform="translate(-14739.008 5039.673)"/>
    <path id="Path_2450" data-name="Path 2450" d="M269.117-232.262c-4-.789-7.663-3.763-10.06-8.16a24.622,24.622,0,0,1-2.694-8.415l.849-.115a23.758,23.758,0,0,0,2.6,8.12c2.275,4.173,5.728,6.991,9.474,7.73Z" transform="translate(-14676.354 5039.664)"/>
    <path id="Path_2451" data-name="Path 2451" d="M257.212-344.195l-.848-.115a24.684,24.684,0,0,1,2.7-8.42c2.4-4.393,6.062-7.366,10.057-8.155l.592-.117-.086.6a21.028,21.028,0,0,1-1.53,5.4l-.785-.342a20.163,20.163,0,0,0,1.369-4.562c-3.51.91-6.715,3.643-8.866,7.586a23.82,23.82,0,0,0-2.6,8.125" transform="translate(-14676.354 5127.729)"/>
    <path id="Path_2452" data-name="Path 2452" d="M346.586-344.192a23.752,23.752,0,0,0-2.605-8.13c-2.149-3.942-5.352-6.674-8.86-7.584a20.167,20.167,0,0,0,1.369,4.562L335.7-355a21.034,21.034,0,0,1-1.53-5.4l-.086-.6.593.117c3.994.789,7.657,3.761,10.051,8.152a24.617,24.617,0,0,1,2.7,8.426Z" transform="translate(-14737.441 5127.729)"/>
    <path id="Path_2453" data-name="Path 2453" d="M343.318-243.145l-.115-.848a23.76,23.76,0,0,0,8.115-2.6c4.177-2.277,6.993-5.731,7.728-9.476l.84.165c-.784,4-3.757,7.664-8.158,10.063a24.278,24.278,0,0,1-8.409,2.7" transform="translate(-14744.605 5045.259)"/>
    <path id="Path_2454" data-name="Path 2454" d="M248.231-243.145a24.627,24.627,0,0,1-8.415-2.7c-4.4-2.4-7.369-6.065-8.152-10.06l.84-.165c.734,3.744,3.549,7.2,7.722,9.473a23.754,23.754,0,0,0,8.12,2.605Z" transform="translate(-14656.941 5045.259)"/>
    <path id="Path_2455" data-name="Path 2455" d="M232.5-322.828l-.84-.165c.795-4.055,3.69-7.629,8.155-10.066a24.681,24.681,0,0,1,8.413-2.7l.115.848a23.816,23.816,0,0,0-8.118,2.6c-4.175,2.278-6.991,5.733-7.724,9.479" transform="translate(-14656.94 5107.886)"/>
    <path id="Path_2456" data-name="Path 2456" d="M359.044-322.828c-.734-3.747-3.552-7.2-7.73-9.481a23.836,23.836,0,0,0-8.112-2.6l.115-.848a24.7,24.7,0,0,1,8.407,2.694c4.4,2.4,7.377,6.071,8.16,10.069Z" transform="translate(-14744.604 5107.886)"/>
  </g>
</svg>
