<svg xmlns="http://www.w3.org/2000/svg" width="139.73" height="80" viewBox="0 0 139.73 80">
  <g id="Group_18867" data-name="Group 18867" transform="translate(0 373.74)">
    <path id="Path_2444" data-name="Path 2444" d="M354.619-350.423a20.807,20.807,0,0,1-2.856-.216,20.962,20.962,0,0,1-5.4-1.527,21.309,21.309,0,0,1-11.136-11.147,21.032,21.032,0,0,1-1.53-5.4,20.7,20.7,0,0,1-.216-2.856l.856,0a19.849,19.849,0,0,0,.207,2.738,20.184,20.184,0,0,0,1.468,5.182,20.459,20.459,0,0,0,10.691,10.7,20.113,20.113,0,0,0,5.182,1.465,19.961,19.961,0,0,0,2.739.207Z" transform="translate(-262.099 -1.702)"/>
    <path id="Path_2445" data-name="Path 2445" d="M240.822-237.524a19.889,19.889,0,0,0-.207-2.738,20.186,20.186,0,0,0-1.468-5.182,20.446,20.446,0,0,0-10.691-10.7,20.112,20.112,0,0,0-5.182-1.468,19.958,19.958,0,0,0-2.742-.207l0-.856a20.836,20.836,0,0,1,2.859.216,20.963,20.963,0,0,1,5.4,1.53,21.3,21.3,0,0,1,11.135,11.144,21.035,21.035,0,0,1,1.53,5.4,20.736,20.736,0,0,1,.216,2.856Z" transform="translate(-173.327 -90.435)"/>
    <path id="Path_2446" data-name="Path 2446" d="M220.538-350.423l0-.856a19.987,19.987,0,0,0,2.741-.207,20.121,20.121,0,0,0,5.182-1.468,20.447,20.447,0,0,0,10.691-10.7,20.183,20.183,0,0,0,1.468-5.182,19.872,19.872,0,0,0,.207-2.739l.856,0a20.732,20.732,0,0,1-.216,2.857,21.028,21.028,0,0,1-1.53,5.4A21.3,21.3,0,0,1,228.8-352.168a20.976,20.976,0,0,1-5.4,1.53,20.8,20.8,0,0,1-2.858.216" transform="translate(-173.328 -1.702)"/>
    <path id="Path_2447" data-name="Path 2447" d="M334.337-237.524l-.856,0a20.726,20.726,0,0,1,.216-2.857,21.044,21.044,0,0,1,1.53-5.4,21.309,21.309,0,0,1,11.136-11.146,20.967,20.967,0,0,1,5.4-1.527,20.815,20.815,0,0,1,2.855-.216l0,.856a19.921,19.921,0,0,0-2.738.207,20.12,20.12,0,0,0-5.183,1.465,20.457,20.457,0,0,0-10.691,10.7,20.193,20.193,0,0,0-1.468,5.182,19.868,19.868,0,0,0-.207,2.739" transform="translate(-262.099 -90.435)"/>
    <path id="Path_2448" data-name="Path 2448" d="M239.112-372.8A22.223,22.223,0,0,0,219.3-352.99a20.116,20.116,0,0,0,2.267-.2,20.107,20.107,0,0,0,5.182-1.468,20.447,20.447,0,0,0,10.691-10.7h0l.008-.019a20.179,20.179,0,0,0,1.46-5.163,19.924,19.924,0,0,0,.2-2.265m-20.745,20.68.039-.467a23.167,23.167,0,0,1,6.7-14.408,23.166,23.166,0,0,1,14.4-6.7l.467-.04,0,.469a20.766,20.766,0,0,1-.216,2.857,21.036,21.036,0,0,1-1.5,5.34l-.026.061a21.3,21.3,0,0,1-11.136,11.144,20.967,20.967,0,0,1-5.4,1.53,20.867,20.867,0,0,1-2.858.216Zm43.044-1.066a20.085,20.085,0,0,0,2.266.2,22.217,22.217,0,0,0-19.8-19.813,19.95,19.95,0,0,0,.2,2.264,20.185,20.185,0,0,0,1.468,5.182h0a20.458,20.458,0,0,0,10.691,10.7,20.131,20.131,0,0,0,4.9,1.423l.286.043m3.2,1.066-.469,0a20.869,20.869,0,0,1-2.856-.216l-.021,0a20.955,20.955,0,0,1-5.18-1.439l-.023-.01-.177-.076a21.313,21.313,0,0,1-11.136-11.147,21.037,21.037,0,0,1-1.53-5.4,20.738,20.738,0,0,1-.216-2.856l0-.469.467.04a23.164,23.164,0,0,1,14.4,6.7,23.159,23.159,0,0,1,6.7,14.408Zm-45.31,3.877a22.223,22.223,0,0,0,19.807,19.812,19.947,19.947,0,0,0-.2-2.264,20.194,20.194,0,0,0-1.468-5.182h0a20.446,20.446,0,0,0-10.69-10.7,20.122,20.122,0,0,0-5.182-1.468,20.079,20.079,0,0,0-2.268-.2m20.675,20.75-.467-.04a23.166,23.166,0,0,1-14.4-6.7,23.167,23.167,0,0,1-6.7-14.407l-.039-.467.468,0a20.836,20.836,0,0,1,2.859.216,20.973,20.973,0,0,1,5.4,1.53,21.3,21.3,0,0,1,11.135,11.144l.008.018v0l.007.016,0,.009,0,.006a21.039,21.039,0,0,1,1.5,5.292l.008.057a20.745,20.745,0,0,1,.216,2.856Zm5.51-8.269a20.186,20.186,0,0,0-1.418,5.066,19.979,19.979,0,0,0-.2,2.265,22.217,22.217,0,0,0,19.8-19.812,20.024,20.024,0,0,0-2.264.2h0l-.1.015a20.122,20.122,0,0,0-5.078,1.45h0a20.457,20.457,0,0,0-10.691,10.7h0l-.05.115M243-327.5l0-.469a20.763,20.763,0,0,1,.216-2.857,21.112,21.112,0,0,1,.709-3.175h0l0-.006v-.005h0a20.993,20.993,0,0,1,.778-2.122h0l.005-.013.009-.022.024-.055a21.311,21.311,0,0,1,11.136-11.146,20.973,20.973,0,0,1,5.4-1.527,20.82,20.82,0,0,1,2.855-.216l.469,0-.039.467a23.159,23.159,0,0,1-6.7,14.407,23.164,23.164,0,0,1-14.4,6.7Z" transform="translate(-171.625)"/>
    <path id="Path_2449" data-name="Path 2449" d="M336.248-232.272l-.166-.84c3.745-.74,7.2-3.556,9.468-7.727a23.765,23.765,0,0,0,2.6-8.126l.848.115a24.634,24.634,0,0,1-2.7,8.421c-2.394,4.394-6.059,7.368-10.054,8.157" transform="translate(-264.143 -98.067)"/>
    <path id="Path_2450" data-name="Path 2450" d="M269.117-232.262c-4-.789-7.663-3.763-10.06-8.16a24.622,24.622,0,0,1-2.694-8.415l.849-.115a23.758,23.758,0,0,0,2.6,8.12c2.275,4.173,5.728,6.991,9.474,7.73Z" transform="translate(-201.488 -98.077)"/>
    <path id="Path_2451" data-name="Path 2451" d="M257.212-344.195l-.848-.115a24.684,24.684,0,0,1,2.7-8.42c2.4-4.393,6.062-7.366,10.057-8.155l.592-.117-.086.6a21.028,21.028,0,0,1-1.53,5.4l-.785-.342a20.163,20.163,0,0,0,1.369-4.562c-3.51.91-6.715,3.643-8.866,7.586a23.82,23.82,0,0,0-2.6,8.125" transform="translate(-201.489 -10.011)"/>
    <path id="Path_2452" data-name="Path 2452" d="M346.586-344.192a23.752,23.752,0,0,0-2.605-8.13c-2.149-3.942-5.352-6.674-8.86-7.584a20.167,20.167,0,0,0,1.369,4.562L335.7-355a21.034,21.034,0,0,1-1.53-5.4l-.086-.6.593.117c3.994.789,7.657,3.761,10.051,8.152a24.617,24.617,0,0,1,2.7,8.426Z" transform="translate(-262.576 -10.011)"/>
    <path id="Path_2453" data-name="Path 2453" d="M343.318-243.145l-.115-.848a23.76,23.76,0,0,0,8.115-2.6c4.177-2.277,6.993-5.731,7.728-9.476l.84.165c-.784,4-3.757,7.664-8.158,10.063a24.278,24.278,0,0,1-8.409,2.7" transform="translate(-269.74 -92.481)"/>
    <path id="Path_2454" data-name="Path 2454" d="M248.231-243.145a24.627,24.627,0,0,1-8.415-2.7c-4.4-2.4-7.369-6.065-8.152-10.06l.84-.165c.734,3.744,3.549,7.2,7.722,9.473a23.754,23.754,0,0,0,8.12,2.605Z" transform="translate(-182.076 -92.481)"/>
    <path id="Path_2455" data-name="Path 2455" d="M232.5-322.828l-.84-.165c.795-4.055,3.69-7.629,8.155-10.066a24.681,24.681,0,0,1,8.413-2.7l.115.848a23.816,23.816,0,0,0-8.118,2.6c-4.175,2.278-6.991,5.733-7.724,9.479" transform="translate(-182.075 -29.854)"/>
    <path id="Path_2456" data-name="Path 2456" d="M359.044-322.828c-.734-3.747-3.552-7.2-7.73-9.481a23.836,23.836,0,0,0-8.112-2.6l.115-.848a24.7,24.7,0,0,1,8.407,2.694c4.4,2.4,7.377,6.071,8.16,10.069Z" transform="translate(-269.739 -29.854)"/>
    <path id="Path_2457" data-name="Path 2457" d="M0-84.024H3.371V-106.5H0ZM11.206-86.85a13.288,13.288,0,0,1-6.839,2.119H3.891v.706h8.952V-88.1Z" transform="translate(0 -210.037)"/>
    <path id="Path_2458" data-name="Path 2458" d="M84.069-66.912a6.375,6.375,0,0,1-5.426,4.078c-4.238,0-6.55-3.179-7.128-6.518-.041-.225-.1-.706-.1-.706-.353-3.436,1.124-6.807,4.174-6.807,3.436,0,5.94,3.05,5.651,6.807H72.035a.707.707,0,0,0,.706.706H84.614V-70.54a7.262,7.262,0,0,0-7.321-7.16c-4.72,0-8.894,2.986-8.894,8.316s4.174,8.316,8.894,8.316c3.917,0,5.908-2.183,7.353-5.651Z" transform="translate(-53.759 -232.672)"/>
    <path id="Path_2459" data-name="Path 2459" d="M203.85-84.024h3.4V-106.5h-3.4Zm6.839-22.476h-2.915v.674h3.172c6.454,0,6.229,14.192.032,14.192h-3.2v.706h2.915c6.293,0,8.541-3.725,8.541-8.059,0-4.046-2.183-7.513-8.541-7.513" transform="translate(-160.216 -210.037)"/>
    <path id="Path_2460" data-name="Path 2460" d="M288.6-87.558h3.307V-111H288.6Z" transform="translate(-226.824 -206.503)" fill-rule="evenodd"/>
    <path id="Path_2461" data-name="Path 2461" d="M318.15-66.377c0,3.4,2.5,5.073,5.523,5.073,2.3,0,4.125-1.76,5.516-4.234v-1.293c-1.257,1.644-2.875,2.894-4.81,2.894-4.5,0-3.853-6.1.385-6.1h3.718a.706.706,0,0,0,.706-.706h-4.521c-4.367,0-6.518,1.638-6.518,4.367M326.337-78c-4.046,0-5.972,1.67-5.972,3.243a1.82,1.82,0,0,0,1.926,1.926,2.885,2.885,0,0,0,1.092-.225c-.257-2.858,1.605-4.335,3.371-4.335,1.509,0,2.954,1.092,2.954,3.339v12.426h3.209v-9.632c0-5.105-1.8-6.743-6.58-6.743" transform="translate(-250.049 -232.436)"/>
    <path id="Path_2462" data-name="Path 2462" d="M403.426-77a5.731,5.731,0,0,0,3.275-1.573l.289.514c-1.445,1.091-2.793,2.023-4.623,2.023-2.215,0-3.66-1.092-3.66-4.912V-91.705h-1.958v-.706h1.958c2.633,0,2.858-2.633,2.858-4.334h.514v4.334h3.435v.706h-3.435v13.067c0,1.22.578,1.637,1.348,1.637" transform="translate(-311.823 -217.703)"/>
    <path id="Path_2463" data-name="Path 2463" d="M454.8-60.443H458.1V-76.5H454.8Z" transform="translate(-357.446 -233.618)" fill-rule="evenodd"/>
    <path id="Path_2464" data-name="Path 2464" d="M487.05-61.153h3.339V-77.207H487.05ZM496.423-77.4c-2.2,0-4.161,1.618-5.516,3.695v1.07c1.162-1.9,3.059-3.127,4.489-3.127,1.862,0,2.793,1.381,2.793,3.949v10.66H501.5v-9.664c0-4.046-1.67-6.582-5.073-6.582" transform="translate(-382.796 -232.908)"/>
    <path id="Path_2465" data-name="Path 2465" d="M579-61.935c-6.891,0-9.765-11.141-5.415-14.132a.8.8,0,0,0,.286-1,7.863,7.863,0,0,0-5.368,7.68c0,5.33,4.238,8.316,9.052,8.316a10.587,10.587,0,0,0,3.506-.58.768.768,0,0,0-.878-.421,5.039,5.039,0,0,1-1.184.134M577.552-77.7a10.849,10.849,0,0,0-3.187.467l.028.061a.789.789,0,0,0,.85.445,5.3,5.3,0,0,1,.9-.073c6.87,0,9.657,10.8,5.6,13.988a.764.764,0,0,0-.218.924l.026.055a7.831,7.831,0,0,0,5-7.55c0-5.555-4.206-8.316-8.99-8.316" transform="translate(-446.812 -232.672)"/>
    <path id="Path_2466" data-name="Path 2466" d="M455.125-108.46v.471a2.537,2.537,0,0,0-2.534,2.534h-.471a2.538,2.538,0,0,0-2.534-2.534v-.471A2.54,2.54,0,0,0,452.119-111h.471a2.539,2.539,0,0,0,2.534,2.537" transform="translate(-353.35 -206.502)"/>
  </g>
</svg>
