<svg xmlns="http://www.w3.org/2000/svg" width="348.434" height="199.488" viewBox="0 0 348.434 199.488">
  <g id="Group_351" data-name="Group 351" transform="translate(0 267.903)">
    <path id="Path_2415" data-name="Path 2415" d="M291.755-213.608a51.944,51.944,0,0,1-7.122-.538,52.327,52.327,0,0,1-13.467-3.809,53.139,53.139,0,0,1-27.769-27.8,52.471,52.471,0,0,1-3.815-13.466,51.714,51.714,0,0,1-.538-7.122l2.136-.013a49.464,49.464,0,0,0,.516,6.828,50.327,50.327,0,0,0,3.661,12.923,51.013,51.013,0,0,0,26.658,26.687,50.187,50.187,0,0,0,12.921,3.654,49.883,49.883,0,0,0,6.832.517Z" transform="translate(-61.045 -0.396)"/>
    <path id="Path_2416" data-name="Path 2416" d="M208.675-132.68a49.6,49.6,0,0,0-.516-6.828A50.326,50.326,0,0,0,204.5-152.43a50.988,50.988,0,0,0-26.658-26.68,50.163,50.163,0,0,0-12.922-3.661,49.852,49.852,0,0,0-6.837-.517l.012-2.135a51.967,51.967,0,0,1,7.13.538,52.307,52.307,0,0,1,13.468,3.815,53.118,53.118,0,0,1,27.767,27.789,52.452,52.452,0,0,1,3.815,13.467,51.714,51.714,0,0,1,.538,7.121Z" transform="translate(-40.37 -21.063)"/>
    <path id="Path_2417" data-name="Path 2417" d="M158.093-213.608l-.012-2.135a49.964,49.964,0,0,0,6.836-.516,50.181,50.181,0,0,0,12.921-3.661A50.99,50.99,0,0,0,204.5-246.6a50.362,50.362,0,0,0,3.661-12.923,49.762,49.762,0,0,0,.516-6.83l2.135.013a51.647,51.647,0,0,1-.538,7.123,52.414,52.414,0,0,1-3.815,13.467,53.11,53.11,0,0,1-27.769,27.788,52.318,52.318,0,0,1-13.467,3.815,51.959,51.959,0,0,1-7.128.538" transform="translate(-40.37 -0.396)"/>
    <path id="Path_2418" data-name="Path 2418" d="M241.18-132.68l-2.135-.013a51.765,51.765,0,0,1,.538-7.123,52.448,52.448,0,0,1,3.815-13.467,53.135,53.135,0,0,1,27.768-27.794,52.273,52.273,0,0,1,13.47-3.809,51.832,51.832,0,0,1,7.119-.538l.013,2.135a49.759,49.759,0,0,0-6.828.517,50.155,50.155,0,0,0-12.923,3.654,51.015,51.015,0,0,0-26.658,26.684A50.32,50.32,0,0,0,241.7-139.51a49.638,49.638,0,0,0-.517,6.83" transform="translate(-61.046 -21.063)"/>
    <path id="Path_2419" data-name="Path 2419" d="M208.258-265.565a55.415,55.415,0,0,0-49.392,49.4,50.122,50.122,0,0,0,5.654-.494,50.187,50.187,0,0,0,12.922-3.661,50.991,50.991,0,0,0,26.66-26.678v0c.007-.016.014-.031.021-.047a50.32,50.32,0,0,0,3.64-12.874,49.745,49.745,0,0,0,.5-5.648M156.529-214l.1-1.164a57.767,57.767,0,0,1,16.709-35.927,57.769,57.769,0,0,1,35.92-16.717l1.165-.1-.007,1.168a51.786,51.786,0,0,1-.539,7.124,52.462,52.462,0,0,1-3.749,13.315l-.066.151a53.113,53.113,0,0,1-27.769,27.787,52.271,52.271,0,0,1-13.467,3.815A51.952,51.952,0,0,1,157.7-214Zm107.335-2.658a49.99,49.99,0,0,0,5.649.5,55.4,55.4,0,0,0-49.385-49.4,49.846,49.846,0,0,0,.5,5.647A50.36,50.36,0,0,0,224.284-247v0a51.012,51.012,0,0,0,26.658,26.684,50.185,50.185,0,0,0,12.207,3.547q.356.056.714.106M271.851-214,270.682-214a51.925,51.925,0,0,1-7.121-.538l-.054-.007a52.3,52.3,0,0,1-12.916-3.588l-.057-.025c-.147-.062-.293-.125-.441-.188a53.147,53.147,0,0,1-27.769-27.8,52.436,52.436,0,0,1-3.814-13.466,51.716,51.716,0,0,1-.539-7.122l-.007-1.168,1.165.1a57.765,57.765,0,0,1,35.919,16.717,57.748,57.748,0,0,1,16.7,35.927ZM158.866-204.33a55.415,55.415,0,0,0,49.392,49.4,49.69,49.69,0,0,0-.5-5.646,50.326,50.326,0,0,0-3.661-12.922v0a50.988,50.988,0,0,0-26.658-26.678,50.163,50.163,0,0,0-12.922-3.661,49.987,49.987,0,0,0-5.655-.5m51.555,51.743-1.165-.1a57.769,57.769,0,0,1-35.92-16.717,57.767,57.767,0,0,1-16.709-35.927l-.1-1.164,1.168.007a51.958,51.958,0,0,1,7.13.538,52.336,52.336,0,0,1,13.468,3.815,53.116,53.116,0,0,1,27.766,27.789c.007.016.014.031.02.045a.026.026,0,0,1,0,.007c.006.013.012.026.017.039a.177.177,0,0,0,.01.021c0,.005,0,.01.006.016a52.451,52.451,0,0,1,3.739,13.2c.007.048.014.1.021.143a51.842,51.842,0,0,1,.538,7.122Zm13.738-20.619a50.35,50.35,0,0,0-3.536,12.633,49.887,49.887,0,0,0-.5,5.648,55.4,55.4,0,0,0,49.385-49.4,49.876,49.876,0,0,0-5.646.5h0l-.258.037a50.187,50.187,0,0,0-12.663,3.617A51.012,51.012,0,0,0,224.285-173.5a0,0,0,0,1,0,0l-.124.288m-6.195,20.619.007-1.168a51.774,51.774,0,0,1,.539-7.124,52.646,52.646,0,0,1,1.768-7.917h0l0-.013s0-.009,0-.013,0,0,0,0a52.5,52.5,0,0,1,1.94-5.292h0a.3.3,0,0,1,.013-.033l.023-.054.06-.138a53.136,53.136,0,0,1,27.767-27.794,52.319,52.319,0,0,1,13.47-3.809,51.948,51.948,0,0,1,7.119-.538l1.168-.007-.1,1.164a57.748,57.748,0,0,1-16.7,35.927,57.765,57.765,0,0,1-35.919,16.717Z" transform="translate(-39.973)"/>
    <path id="Path_2420" data-name="Path 2420" d="M241.323-136.838l-.414-2.095c9.338-1.844,17.944-8.867,23.611-19.268a59.278,59.278,0,0,0,6.49-20.263l2.115.287a61.424,61.424,0,0,1-6.731,21c-5.97,10.958-15.108,18.372-25.071,20.34" transform="translate(-61.522 -22.841)"/>
    <path id="Path_2421" data-name="Path 2421" d="M215.568-136.835c-9.965-1.967-19.108-9.384-25.085-20.348a61.405,61.405,0,0,1-6.718-20.985l2.116-.285a59.234,59.234,0,0,0,6.476,20.248c5.673,10.406,14.283,17.432,23.624,19.275Z" transform="translate(-46.929 -22.843)"/>
    <path id="Path_2422" data-name="Path 2422" d="M185.881-216.861l-2.115-.287a61.548,61.548,0,0,1,6.725-21c5.975-10.955,15.116-18.367,25.078-20.335l1.477-.292-.214,1.491a52.481,52.481,0,0,1-3.815,13.469l-1.958-.852a50.328,50.328,0,0,0,3.415-11.376c-8.752,2.27-16.744,9.084-22.108,18.918a59.391,59.391,0,0,0-6.483,20.261" transform="translate(-46.929 -2.332)"/>
    <path id="Path_2423" data-name="Path 2423" d="M270.644-216.855a59.241,59.241,0,0,0-6.5-20.274c-5.359-9.831-13.347-16.642-22.1-18.912a50.266,50.266,0,0,0,3.416,11.376l-1.959.852a52.5,52.5,0,0,1-3.815-13.469l-.214-1.492,1.478.293c9.959,1.969,19.1,9.378,25.064,20.328a61.393,61.393,0,0,1,6.738,21.01Z" transform="translate(-61.157 -2.332)"/>
    <path id="Path_2424" data-name="Path 2424" d="M246.3-151.322l-.287-2.115a59.243,59.243,0,0,0,20.234-6.489c10.415-5.677,17.438-14.29,19.269-23.63l2.1.411c-1.954,9.965-9.368,19.111-20.342,25.093a60.551,60.551,0,0,1-20.97,6.731" transform="translate(-62.825 -21.54)"/>
    <path id="Path_2425" data-name="Path 2425" d="M207.372-151.322a61.418,61.418,0,0,1-20.985-6.738c-10.965-5.981-18.374-15.125-20.327-25.086l2.095-.411c1.831,9.336,8.849,17.946,19.255,23.623a59.25,59.25,0,0,0,20.249,6.5Z" transform="translate(-42.407 -21.54)"/>
    <path id="Path_2426" data-name="Path 2426" d="M168.155-208.439l-2.1-.411c1.981-10.111,9.2-19.024,20.335-25.1a61.532,61.532,0,0,1,20.977-6.725l.287,2.115a59.379,59.379,0,0,0-20.242,6.484c-10.411,5.681-17.432,14.3-19.262,23.636" transform="translate(-42.407 -6.954)"/>
    <path id="Path_2427" data-name="Path 2427" d="M285.518-208.439c-1.83-9.344-8.857-17.96-19.276-23.643a59.416,59.416,0,0,0-20.229-6.478l.288-2.115a61.58,61.58,0,0,1,20.963,6.717c10.98,5.988,18.4,15.138,20.349,25.107Z" transform="translate(-62.825 -6.954)"/>
    <path id="Path_2428" data-name="Path 2428" d="M0-20.3H8.407V-76.342H0Zm27.942-7.045a33.135,33.135,0,0,1-17.053,5.284H9.7V-20.3H32.026V-30.465Z" transform="translate(0 -48.92)"/>
    <path id="Path_2429" data-name="Path 2429" d="M88.1-28.8c-1.922,6-8.806,10.168-13.53,10.168C64-18.628,58.238-26.554,56.8-34.881c-.1-.56-.241-1.761-.241-1.761-.881-8.567,2.8-16.974,10.408-16.974,8.567,0,14.812,7.606,14.091,16.974H58.094a1.761,1.761,0,0,0,1.761,1.761H89.463v-2.962A18.108,18.108,0,0,0,71.208-55.7c-11.77,0-22.178,7.446-22.178,20.737S59.439-14.224,71.208-14.224c9.767,0,14.732-5.444,18.334-14.091Z" transform="translate(-12.521 -54.192)"/>
    <path id="Path_2430" data-name="Path 2430" d="M146.123-20.3h8.487V-76.342h-8.487Zm17.053-56.044h-7.27v1.681h7.91c16.093,0,15.533,35.388.08,35.388h-7.991v1.761h7.27c15.693,0,21.3-9.287,21.3-20.1,0-10.088-5.444-18.735-21.3-18.735" transform="translate(-37.316 -48.92)"/>
    <path id="Path_2431" data-name="Path 2431" d="M206.872-21.119h8.246V-79.564h-8.246Z" transform="translate(-52.83 -48.097)" fill-rule="evenodd"/>
    <path id="Path_2432" data-name="Path 2432" d="M228.055-26.929c0,8.487,6.245,12.65,13.771,12.65,5.738,0,10.286-4.388,13.755-10.558v-3.224c-3.133,4.1-7.169,7.217-11.994,7.217-11.209,0-9.607-15.213.961-15.213h9.271a1.761,1.761,0,0,0,1.761-1.761H244.308c-10.889,0-16.253,4.084-16.253,10.889m20.416-28.983c-10.088,0-14.892,4.163-14.892,8.087a4.538,4.538,0,0,0,4.8,4.8,7.188,7.188,0,0,0,2.722-.561c-.64-7.125,4-10.808,8.407-10.808,3.763,0,7.366,2.722,7.366,8.326V-15.08h8V-39.1c0-12.731-4.478-16.814-16.408-16.814" transform="translate(-58.239 -54.137)"/>
    <path id="Path_2433" data-name="Path 2433" d="M301.047-20.112c2.882,0,6.805-2.482,8.166-3.923l.721,1.281c-3.6,2.722-6.965,5.044-11.529,5.044-5.524,0-9.127-2.723-9.127-12.25V-56.78h-4.883v-1.762h4.883c6.565,0,7.125-6.565,7.125-10.808h1.282v10.808h8.566v1.762h-8.566v32.585c0,3.042,1.441,4.083,3.362,4.083" transform="translate(-72.627 -50.705)"/>
    <path id="Path_2434" data-name="Path 2434" d="M326.005-14.8h8.247v-40.03h-8.247Z" transform="translate(-83.253 -54.412)" fill-rule="evenodd"/>
    <path id="Path_2435" data-name="Path 2435" d="M349.125-14.97h8.326V-55h-8.326ZM372.5-55.482c-5.5,0-10.376,4.035-13.756,9.213V-43.6c2.9-4.745,7.628-7.8,11.193-7.8,4.643,0,6.965,3.442,6.965,9.848V-14.97h8.247v-24.1c0-10.088-4.163-16.413-12.65-16.413" transform="translate(-89.157 -54.247)"/>
    <path id="Path_2436" data-name="Path 2436" d="M433.686-16.386c-17.182,0-24.351-27.781-13.5-35.239a2,2,0,0,0,.714-2.487c-7.734,2.84-13.387,9.432-13.387,19.152,0,13.291,10.568,20.736,22.573,20.736a26.4,26.4,0,0,0,8.743-1.446,1.915,1.915,0,0,0-2.188-1.049,12.56,12.56,0,0,1-2.952.334m-3.6-39.312a27.061,27.061,0,0,0-7.947,1.164l.071.151a1.965,1.965,0,0,0,2.118,1.109,13.293,13.293,0,0,1,2.236-.182c17.132,0,24.08,26.934,13.957,34.881a1.9,1.9,0,0,0-.544,2.3l.064.137A19.527,19.527,0,0,0,452.5-34.96c0-13.852-10.489-20.737-22.418-20.737" transform="translate(-104.067 -54.192)"/>
    <path id="Path_2437" data-name="Path 2437" d="M336.084-73.239v1.174a6.326,6.326,0,0,0-6.32,6.32H328.59a6.329,6.329,0,0,0-6.32-6.32v-1.174a6.334,6.334,0,0,0,6.32-6.325h1.174a6.33,6.33,0,0,0,6.32,6.325" transform="translate(-82.299 -48.097)"/>
  </g>
</svg>
