<svg xmlns="http://www.w3.org/2000/svg" width="85.435" height="48.914" viewBox="0 0 85.435 48.914">
  <g id="Group_365" data-name="Group 365" transform="translate(0 0)">
    <path id="Path_2444" data-name="Path 2444" d="M346.405-358.642a12.713,12.713,0,0,1-1.746-.132,12.817,12.817,0,0,1-3.3-.934,13.029,13.029,0,0,1-6.809-6.816,12.858,12.858,0,0,1-.935-3.3,12.656,12.656,0,0,1-.132-1.746l.524,0a12.13,12.13,0,0,0,.127,1.674,12.338,12.338,0,0,0,.9,3.168,12.509,12.509,0,0,0,6.537,6.544,12.293,12.293,0,0,0,3.168.9,12.192,12.192,0,0,0,1.675.127Z" transform="translate(-289.836 371.858)"/>
    <path id="Path_2445" data-name="Path 2445" d="M232.938-245.743a12.158,12.158,0,0,0-.127-1.674,12.343,12.343,0,0,0-.9-3.169,12.5,12.5,0,0,0-6.537-6.542,12.3,12.3,0,0,0-3.168-.9,12.209,12.209,0,0,0-1.677-.127l0-.523a12.736,12.736,0,0,1,1.748.132,12.818,12.818,0,0,1,3.3.936,13.024,13.024,0,0,1,6.808,6.814,12.861,12.861,0,0,1,.935,3.3,12.686,12.686,0,0,1,.132,1.746Z" transform="translate(-191.67 273.735)"/>
    <path id="Path_2446" data-name="Path 2446" d="M220.536-358.642l0-.523a12.215,12.215,0,0,0,1.676-.127,12.3,12.3,0,0,0,3.168-.9,12.5,12.5,0,0,0,6.537-6.541,12.34,12.34,0,0,0,.9-3.169,12.151,12.151,0,0,0,.127-1.675l.524,0a12.673,12.673,0,0,1-.132,1.747,12.856,12.856,0,0,1-.936,3.3,13.023,13.023,0,0,1-6.809,6.814,12.827,12.827,0,0,1-3.3.935,12.71,12.71,0,0,1-1.748.132" transform="translate(-191.67 371.858)"/>
    <path id="Path_2447" data-name="Path 2447" d="M334-245.743l-.524,0a12.671,12.671,0,0,1,.132-1.747,12.866,12.866,0,0,1,.936-3.3,13.029,13.029,0,0,1,6.809-6.815,12.82,12.82,0,0,1,3.3-.934,12.721,12.721,0,0,1,1.746-.132l0,.523a12.185,12.185,0,0,0-1.674.127,12.305,12.305,0,0,0-3.169.9,12.508,12.508,0,0,0-6.536,6.543,12.346,12.346,0,0,0-.9,3.169,12.143,12.143,0,0,0-.127,1.675" transform="translate(-289.836 273.735)"/>
    <path id="Path_2448" data-name="Path 2448" d="M231.051-373.167a13.587,13.587,0,0,0-12.111,12.114,12.3,12.3,0,0,0,1.386-.121,12.293,12.293,0,0,0,3.168-.9,12.5,12.5,0,0,0,6.537-6.541h0l0-.011a12.338,12.338,0,0,0,.892-3.156,12.177,12.177,0,0,0,.121-1.385m-12.684,12.644.024-.285a14.165,14.165,0,0,1,4.1-8.809,14.164,14.164,0,0,1,8.807-4.1l.285-.024,0,.287a12.7,12.7,0,0,1-.132,1.747,12.862,12.862,0,0,1-.92,3.265l-.016.037a13.023,13.023,0,0,1-6.809,6.813,12.819,12.819,0,0,1-3.3.936,12.752,12.752,0,0,1-1.748.132Zm26.318-.652a12.281,12.281,0,0,0,1.385.121,13.584,13.584,0,0,0-12.109-12.114,12.192,12.192,0,0,0,.121,1.384,12.341,12.341,0,0,0,.9,3.168h0a12.508,12.508,0,0,0,6.536,6.543,12.308,12.308,0,0,0,2.993.87l.175.026m1.958.652-.287,0a12.754,12.754,0,0,1-1.746-.132l-.013,0a12.813,12.813,0,0,1-3.167-.88l-.014-.006-.108-.046a13.031,13.031,0,0,1-6.809-6.816,12.862,12.862,0,0,1-.935-3.3,12.676,12.676,0,0,1-.132-1.746l0-.287.285.024a14.163,14.163,0,0,1,8.807,4.1,14.16,14.16,0,0,1,4.1,8.809Zm-27.7,2.37a13.587,13.587,0,0,0,12.111,12.114,12.189,12.189,0,0,0-.121-1.384,12.346,12.346,0,0,0-.9-3.168h0a12.5,12.5,0,0,0-6.536-6.541,12.3,12.3,0,0,0-3.168-.9,12.261,12.261,0,0,0-1.387-.121m12.641,12.687-.285-.024a14.164,14.164,0,0,1-8.807-4.1,14.165,14.165,0,0,1-4.1-8.809l-.024-.285.286,0a12.746,12.746,0,0,1,1.748.132,12.824,12.824,0,0,1,3.3.936,13.024,13.024,0,0,1,6.808,6.814l0,.011v0l0,.01,0,.005,0,0a12.863,12.863,0,0,1,.917,3.236l0,.035a12.687,12.687,0,0,1,.132,1.746Zm3.369-5.056a12.343,12.343,0,0,0-.867,3.1,12.209,12.209,0,0,0-.121,1.385,13.584,13.584,0,0,0,12.109-12.114,12.227,12.227,0,0,0-1.385.121h0l-.063.009a12.3,12.3,0,0,0-3.1.887h0a12.508,12.508,0,0,0-6.536,6.543h0l-.03.071m-1.519,5.056,0-.286a12.692,12.692,0,0,1,.132-1.747,12.907,12.907,0,0,1,.434-1.941h0v-.007h0a12.84,12.84,0,0,1,.476-1.3h0l0-.008.006-.013.015-.034a13.03,13.03,0,0,1,6.809-6.815,12.821,12.821,0,0,1,3.3-.934,12.736,12.736,0,0,1,1.746-.132l.287,0-.024.285a14.16,14.16,0,0,1-4.1,8.809,14.162,14.162,0,0,1-8.807,4.1Z" transform="translate(-189.788 373.74)"/>
    <path id="Path_2449" data-name="Path 2449" d="M336.183-238.759l-.1-.514A8.862,8.862,0,0,0,341.871-244a14.53,14.53,0,0,0,1.591-4.968l.519.07a15.061,15.061,0,0,1-1.65,5.149,9.378,9.378,0,0,1-6.147,4.987" transform="translate(-292.097 265.295)"/>
    <path id="Path_2450" data-name="Path 2450" d="M264.161-238.747a9.384,9.384,0,0,1-6.151-4.989,15.054,15.054,0,0,1-1.647-5.145l.519-.07a14.526,14.526,0,0,0,1.588,4.965,8.867,8.867,0,0,0,5.792,4.726Z" transform="translate(-222.811 265.284)"/>
    <path id="Path_2451" data-name="Path 2451" d="M256.883-350.726l-.519-.07a15.094,15.094,0,0,1,1.649-5.148,9.385,9.385,0,0,1,6.149-4.986l.362-.072-.052.366a12.857,12.857,0,0,1-.936,3.3l-.48-.209a12.329,12.329,0,0,0,.837-2.789,9.041,9.041,0,0,0-5.421,4.639,14.564,14.564,0,0,0-1.59,4.968" transform="translate(-222.812 362.669)"/>
    <path id="Path_2452" data-name="Path 2452" d="M341.729-350.724a14.522,14.522,0,0,0-1.593-4.971,9.035,9.035,0,0,0-5.417-4.637,12.334,12.334,0,0,0,.837,2.789l-.48.209a12.861,12.861,0,0,1-.936-3.3l-.053-.366.362.072a9.378,9.378,0,0,1,6.146,4.984,15.052,15.052,0,0,1,1.652,5.152Z" transform="translate(-290.364 362.669)"/>
    <path id="Path_2453" data-name="Path 2453" d="M343.274-248.168l-.071-.519a14.527,14.527,0,0,0,4.962-1.591,8.855,8.855,0,0,0,4.725-5.794l.514.1a9.371,9.371,0,0,1-4.988,6.153,14.844,14.844,0,0,1-5.142,1.65" transform="translate(-298.286 271.472)"/>
    <path id="Path_2454" data-name="Path 2454" d="M241.794-248.168a15.057,15.057,0,0,1-5.145-1.652,9.37,9.37,0,0,1-4.984-6.151l.514-.1a8.853,8.853,0,0,0,4.721,5.792,14.525,14.525,0,0,0,4.965,1.593Z" transform="translate(-201.345 271.472)"/>
    <path id="Path_2455" data-name="Path 2455" d="M232.177-327.851l-.514-.1a9.252,9.252,0,0,1,4.986-6.154,15.089,15.089,0,0,1,5.144-1.649l.07.519a14.56,14.56,0,0,0-4.963,1.59,8.858,8.858,0,0,0-4.723,5.8" transform="translate(-201.344 340.727)"/>
    <path id="Path_2456" data-name="Path 2456" d="M352.888-327.851a8.86,8.86,0,0,0-4.726-5.8,14.573,14.573,0,0,0-4.96-1.588l.071-.519a15.1,15.1,0,0,1,5.14,1.647,9.377,9.377,0,0,1,4.989,6.156Z" transform="translate(-298.285 340.727)"/>
    <path id="Path_2457" data-name="Path 2457" d="M0-92.758H2.061V-106.5H0Zm6.851-1.728a8.125,8.125,0,0,1-4.182,1.3H2.379v.432H7.853v-2.493Z" transform="translate(0 141.475)"/>
    <path id="Path_2458" data-name="Path 2458" d="M77.98-71.1a3.9,3.9,0,0,1-3.318,2.493A4.416,4.416,0,0,1,70.3-72.6c-.025-.137-.059-.432-.059-.432-.216-2.1.687-4.162,2.552-4.162a3.629,3.629,0,0,1,3.455,4.162h-5.63a.432.432,0,0,0,.432.432h7.26v-.726A4.44,4.44,0,0,0,73.838-77.7c-2.886,0-5.438,1.826-5.438,5.085s2.552,5.085,5.438,5.085c2.4,0,3.612-1.335,4.5-3.455Z" transform="translate(-59.448 116.445)"/>
    <path id="Path_2459" data-name="Path 2459" d="M203.85-92.758h2.081V-106.5H203.85Zm4.182-13.742h-1.783v.412h1.94c3.946,0,3.809,8.677.02,8.677h-1.959v.432h1.783c3.848,0,5.222-2.277,5.222-4.927,0-2.474-1.335-4.594-5.222-4.594" transform="translate(-177.171 141.476)"/>
    <path id="Path_2460" data-name="Path 2460" d="M288.6-96.665h2.022V-111H288.6Z" transform="translate(-250.828 145.383)" fill-rule="evenodd"/>
    <path id="Path_2461" data-name="Path 2461" d="M318.15-70.893c0,2.081,1.531,3.1,3.377,3.1,1.407,0,2.522-1.076,3.373-2.589v-.79a3.849,3.849,0,0,1-2.941,1.769c-2.748,0-2.356-3.73.236-3.73h2.273a.432.432,0,0,0,.432-.432h-2.764c-2.67,0-3.985,1-3.985,2.67M323.156-78c-2.474,0-3.651,1.021-3.651,1.983a1.113,1.113,0,0,0,1.178,1.178,1.764,1.764,0,0,0,.667-.137,2.2,2.2,0,0,1,2.061-2.65,1.833,1.833,0,0,1,1.806,2.042v7.6h1.962v-5.889c0-3.121-1.1-4.123-4.023-4.123" transform="translate(-276.512 116.706)"/>
    <path id="Path_2462" data-name="Path 2462" d="M400.831-84.673a3.5,3.5,0,0,0,2-.962l.177.314a4.627,4.627,0,0,1-2.827,1.237c-1.355,0-2.238-.668-2.238-3v-6.576h-1.2V-94.1h1.2c1.61,0,1.747-1.61,1.747-2.65h.314v2.65h2.1v.432h-2.1v7.99c0,.746.353,1,.824,1" transform="translate(-344.823 132.998)"/>
    <path id="Path_2463" data-name="Path 2463" d="M454.8-66.681h2.022V-76.5H454.8Z" transform="translate(-395.274 115.399)" fill-rule="evenodd"/>
    <path id="Path_2464" data-name="Path 2464" d="M487.05-67.466h2.042v-9.816H487.05Zm5.731-9.934a4.33,4.33,0,0,0-3.373,2.259v.654a3.71,3.71,0,0,1,2.745-1.912c1.139,0,1.708.844,1.708,2.415v6.518h2.022v-5.909c0-2.474-1.021-4.024-3.1-4.024" transform="translate(-423.307 116.184)"/>
    <path id="Path_2465" data-name="Path 2465" d="M574.918-68.061c-4.213,0-5.971-6.812-3.311-8.641a.489.489,0,0,0,.175-.61,4.808,4.808,0,0,0-3.282,4.7c0,3.259,2.591,5.085,5.535,5.085a6.473,6.473,0,0,0,2.144-.355.47.47,0,0,0-.537-.257,3.08,3.08,0,0,1-.724.082m-.883-9.639a6.634,6.634,0,0,0-1.949.285l.017.037a.482.482,0,0,0,.52.272,3.238,3.238,0,0,1,.548-.045c4.2,0,5.9,6.6,3.422,8.553a.467.467,0,0,0-.133.565l.016.034a4.788,4.788,0,0,0,3.056-4.616c0-3.4-2.572-5.085-5.5-5.085" transform="translate(-494.097 116.445)"/>
    <path id="Path_2466" data-name="Path 2466" d="M452.972-109.446v.288a1.551,1.551,0,0,0-1.55,1.55h-.288a1.552,1.552,0,0,0-1.55-1.55v-.288a1.553,1.553,0,0,0,1.55-1.551h.288a1.552,1.552,0,0,0,1.55,1.551" transform="translate(-390.745 145.384)"/>
  </g>
</svg>
