<svg xmlns="http://www.w3.org/2000/svg" width="7.842" height="13.828" viewBox="0 0 7.842 13.828">
  <g id="Group_8673" data-name="Group 8673" transform="translate(13087.839 11899)">
    <g id="Group_4722" data-name="Group 4722" transform="translate(-13087.839 -11899)">
      <path id="Path_45" data-name="Path 45" d="M151.717,1.776,152.89,0H148V3.536h4.89Z" transform="translate(-145.698)" fill="#239a48"/>
      <path id="Path_46" data-name="Path 46" d="M134.46,0H132.7V9.961a3.922,3.922,0,0,0,1.685,3.16,3.966,3.966,0,0,0,2.244.707,4.07,4.07,0,0,0,2.032-.557,3.932,3.932,0,0,0-3.675-6.936V8.487a2.15,2.15,0,0,1,1.626-.738,2.19,2.19,0,0,1,.948.212,1.638,1.638,0,0,1,.5.346,2.152,2.152,0,1,1-3.6,1.595Z" transform="translate(-132.7)" fill="#239a48"/>
    </g>
  </g>
</svg>
